<svg id="Layer_1" data-name="Layer 1" xmlns="http://www.w3.org/2000/svg" viewBox="0 0 826.52 826.52"><defs><style>.cls-1{fill:#058175;}.cls-2{fill:#02555f;}.cls-3{fill:#42ad7a;}.cls-4{fill:#9acd74;}.cls-5{fill:#c7e2b3;}</style></defs><title>wt</title><circle class="cls-1" cx="413.26" cy="413.26" r="413.26"/><g id="graphic"><path class="cls-2" d="M905.79,650.37h157.56s7.86-44.91-33.67-44c-2.49-5-37.34-63.06-80.15,0C949.53,606.33,903.83,593.67,905.79,650.37Z" transform="translate(-442.38 -404.01)"/><path class="cls-3" d="M594.21,687.9H815.62s11-63.11-47.31-61.87c0,0-47.7-95.65-112.63,0C655.68,626,591.46,608.22,594.21,687.9Z" transform="translate(-442.38 -404.01)"/><polygon class="cls-4" points="500.88 725.44 500.88 310.52 520.32 310.52 520.32 725.5 500.88 725.44"/><circle class="cls-4" cx="510.6" cy="310.52" r="15.79"/><path class="cls-4" d="M968.35,718.92s83.4,7.92,177.46-11.4c0,0-118.09-14.47-180.78,2.69l-2.75,9.1Z" transform="translate(-442.38 -404.01)"/><path class="cls-4" d="M944,728.47s-44.73,70.84-117.53,133.46c0,0,60.75-102.3,112.67-141.4l8.87,3.38Z" transform="translate(-442.38 -404.01)"/><path class="cls-4" d="M942.86,703.15s-38.45-74.43-55.6-168.92c0,0,57.46,104.18,64.91,168.75l-7.41,5.94Z" transform="translate(-442.38 -404.01)"/><rect class="cls-5" x="338.66" y="368.32" width="22.48" height="357.18"/><circle class="cls-5" cx="349.9" cy="368.32" r="18.27"/><path class="cls-5" d="M806.22,783s80.71,53.63,187.17,85.29c0,0-112.5-79.24-185.79-96l-7.77,7.77Z" transform="translate(-442.38 -404.01)"/><path class="cls-5" d="M775.24,783.05s-82.48,50.86-190,78.91c0,0,115.12-75.39,188.93-89.63l7.5,8Z" transform="translate(-442.38 -404.01)"/><path class="cls-5" d="M786.1,754.45s-12.81-96.05,5.4-205.62c0,0,21.9,135.86,4.81,209.07l-10.39,3.57Z" transform="translate(-442.38 -404.01)"/></g></svg>