<svg id="Layer_1" data-name="Layer 1" xmlns="http://www.w3.org/2000/svg" viewBox="0 0 826.75 826.75"><defs><style>.cls-1{fill:#055660;}.cls-2{fill:#002c3a;}.cls-3{fill:#a9a2a3;}.cls-4{fill:#787677;}.cls-5{fill:#98d3e1;stroke:#888989;stroke-miterlimit:10;}.cls-6{font-size:6.58px;fill:#fff;font-family:PressStart2P-Regular, "Press Start 2P";}.cls-7{fill:#f9f9fa;}</style></defs><title>button1</title><circle class="cls-1" cx="413.37" cy="413.37" r="413.37"/><rect class="cls-2" x="69.67" y="222.64" width="658.55" height="249.71" rx="41.48"/><path class="cls-3" d="M1133.75,838.09H565.29A13.09,13.09,0,0,1,552.23,825L541.6,768.25c0-1.56,1-1.88,2.56-1.88l610.2-.59c1.56,0,2.68,1.75,2.68,3.31l-9.52,55.23A13.81,13.81,0,0,1,1133.75,838.09Z" transform="translate(-450.63 -391.65)"/><rect class="cls-4" x="119.96" y="388.44" width="557.97" height="6.06" rx="2.84"/><rect class="cls-4" x="119.96" y="404.22" width="557.97" height="6.06" rx="2.84"/><rect class="cls-4" x="119.96" y="420" width="557.97" height="6.06" rx="2.84"/><rect class="cls-4" x="120.26" y="434.82" width="557.97" height="6.06" rx="2.84"/><rect class="cls-4" x="257.87" y="340.27" width="282.91" height="14.44" rx="2.84"/><rect class="cls-5" x="101.09" y="247.04" width="75.77" height="37.74" rx="10.48"/><text class="cls-6" transform="translate(106.38 260.96) scale(1 1.27)">19</text><text class="cls-6" transform="translate(143.92 260.96) scale(1 1.27)">COOL</text><g id="AIR"><g id="air-2" data-name="air"><path class="cls-7" d="M833.89,1135.6s34.49-35.22,0-89.81,7.66-112.69,7.66-112.69,4.9-7.26.58-10.86-9.35,3.24-9.35,3.24-47.84,68.34-6.48,124.82c0,0,30.23,47.33,2.81,73.48a26.86,26.86,0,0,0-6.08,8.75.77.77,0,0,1-.07.16c-2.08,4.89,3.94,9.31,8,5.9A23.25,23.25,0,0,0,833.89,1135.6Z" transform="translate(-450.63 -391.65)"/></g><g id="air-3" data-name="air"><path class="cls-7" d="M918.65,1103.7s34.49-35.22,0-89.8,7.66-112.7,7.66-112.7,4.9-7.26.58-10.86-9.35,3.24-9.35,3.24-47.84,68.34-6.48,124.82c0,0,30.23,47.33,2.81,73.48a26.8,26.8,0,0,0-6.08,8.76l-.06.16c-2.09,4.88,3.93,9.3,8,5.89A23.25,23.25,0,0,0,918.65,1103.7Z" transform="translate(-450.63 -391.65)"/></g><g id="air-4" data-name="air"><path class="cls-7" d="M1011,1130.87s34.49-35.22,0-89.8,7.66-112.7,7.66-112.7,4.9-7.26.58-10.86-9.35,3.24-9.35,3.24-47.84,68.34-6.47,124.82c0,0,30.22,47.33,2.81,73.48a26.65,26.65,0,0,0-6.08,8.76.77.77,0,0,0-.07.16c-2.09,4.88,3.93,9.3,8,5.89A23.25,23.25,0,0,0,1011,1130.87Z" transform="translate(-450.63 -391.65)"/></g><g id="air-5" data-name="air"><path class="cls-7" d="M742.28,1099s34.48-35.21,0-89.8,7.66-112.69,7.66-112.69,4.9-7.27.58-10.86-9.35,3.23-9.35,3.23-47.85,68.35-6.48,124.82c0,0,30.23,47.34,2.81,73.49a26.76,26.76,0,0,0-6.08,8.75,1.11,1.11,0,0,1-.07.16c-2.08,4.89,3.94,9.3,8,5.89A23.25,23.25,0,0,0,742.28,1099Z" transform="translate(-450.63 -391.65)"/></g></g></svg>