<?xml version="1.0" encoding="utf-8"?>
<!-- Generator: Adobe Illustrator 24.0.1, SVG Export Plug-In . SVG Version: 6.00 Build 0)  -->
<svg version="1.1" id="Layer_1" xmlns="http://www.w3.org/2000/svg" xmlns:xlink="http://www.w3.org/1999/xlink" x="0px" y="0px"
	 viewBox="0 0 1728 1728" style="enable-background:new 0 0 1728 1728;" xml:space="preserve">
<style type="text/css">
	.st0{fill:#41AD7A;}
	.st1{fill:#008175;stroke:#02555F;stroke-miterlimit:10;}
	.st2{fill:none;stroke:#02555F;stroke-miterlimit:10;}
	.st3{fill:#C7E2B3;stroke:#02555F;stroke-miterlimit:10;}
	.st4{fill:#C4C42F;stroke:#5E5624;stroke-miterlimit:10;}
	.st5{fill:#7F2921;}
	.st6{fill:#635E28;stroke:#5E5624;stroke-miterlimit:10;}
	.st7{fill:#B7A932;stroke:#0C5C51;stroke-miterlimit:10;}
	.st8{fill:#F6E033;stroke:#0C5C51;stroke-miterlimit:10;}
	.st9{fill:none;stroke:#7F7D70;stroke-width:3;stroke-miterlimit:10;}
	.st10{fill:#7F7D70;}
</style>
<circle class="st0" cx="871.7" cy="850.4" r="839.6"/>
<g id="food">
	<g id="plate_2_">
		<circle id="plate" class="st1" cx="876" cy="491.5" r="335.8"/>
		<path id="plate_1_" class="st2" d="M944.5,267.2c0,0-251.3-54.1-289.8,206.5"/>
	</g>
	<path id="fork" class="st3" d="M1073.4,408.9l-85.1,64.9l93.8-38l-70.5,73.4l89.8-49l-51.3,67.1c0,0,74.7-34.8,105.8-70.1
		s13.5-55.8,13.5-55.8l178-111l-15.7-25.1l-176.8,110.3c0,0-19.6-31.5-58.4-13.6c-38.8,17.9-107.8,71.3-107.8,71.3L1073.4,408.9"/>
	<g id="pizza">
		<path class="st4" d="M750.2,675.9c-10.2-11.2-26.8-14.1-40.2-7c-36.8,19.5-108.3,64.5-137.3,132.5c-7.5,17.5-1.1,35.1,14.2,52.2
			c31.9,35.6,100.1,56.6,164.9,81.3c3.9,1.5,12.3-5.9,16.1-4.5c3.4,1.3,20.5-8.5,23.9-7.3c60.3,21.8,94.7,51.4,94.7,51.4
			s-18.1-155.3-123.1-283.2C759.2,686.1,754.8,681,750.2,675.9z"/>
		<circle class="st5" cx="728.3" cy="884.3" r="26.8"/>
		<path class="st6" d="M602.7,842.6c41.8-60.7,58.1-76.6,58.1-76.6s47.1-48.6,102.6-74.6c0,0-22.9-40.2-53.4-22.4
			c0,0-105.3,52.1-137.3,132.5C572.8,801.4,578.2,878.2,602.7,842.6z"/>
		<circle class="st5" cx="811.9" cy="868.6" r="17.4"/>
		<circle class="st5" cx="769.4" cy="795.2" r="31.3"/>
		<circle class="st5" cx="648.9" cy="845.8" r="19.9"/>
		<circle class="st5" cx="842.5" cy="915.5" r="17.8"/>
	</g>
	<g id="banana">
		<path class="st7" d="M1001.5,1159.5c0,0-9.5,49-60.3,65c0,0,19.8,1.9,78-27c58.2-28.9,61.9-125.2,61.9-125.2l-37.4-17.7
			L1001.5,1159.5z"/>
		<path class="st8" d="M1067.4,949.6c-27.4,61.5-135.1,272.1-317.8,246.8c0,0,25.6,24,115.7,28c36.9,1.6,79.8-25.2,117.6-57.5
			c54.6-46.6,98.6-104.6,98.6-104.6s-110,132.2-9,273.5c0,0-32.1-98.7,25.2-182.1c57.1-83.1,96.5-250.7,96.8-251.9c0,0,0,0,0,0
			c0.2-0.6,12.9-43.2,16.2-84.4c3.3-41.5-50.4-3.4-50.4-3.4s-30.7,38.8-73.3,100.4C1079.5,925.5,1072.9,937.3,1067.4,949.6z"/>
		<path class="st8" d="M1172.4,861.1c0,0-18.7,81.5-81.4,172.1"/>
		<polygon class="st8" points="1196.3,798.1 1208.9,763.8 1226.9,772.3 1208.6,803.2 		"/>
	</g>
	<g id="fish">
		<path class="st9" d="M480.3,1317.6l160.5-209.3l-7.6-65.9c0,0,10.6,23.1,31.7,38.8s42.5,22.8,42.5,22.8"/>
		<path class="st10" d="M520.9,1352.5l-87.8-77.7c0,0-75.1,63.3-57.6,119.6c9.9,31.9,41.3,27.5,66.7,17.7
			c18.4-7.2,35.1-18.1,49.5-31.8L520.9,1352.5z"/>
		<path class="st9" d="M553.5,1286.2c0,0-8.2-43.1-79.3-66.3"/>
		<path class="st9" d="M588.9,1266.6c-18.7-43.1-17-62.4-83.1-88"/>
		<path class="st9" d="M624.5,1231.6c0,0-15.9-61-87-84.2"/>
		<path class="st9" d="M479.2,1320.9l162.4-207.8l65.7-9.2c0,0-25-4.5-45.5-21c-20.4-16.5-26.2-35.9-26.2-35.9"/>
		<g>
			<g>
				<path class="st10" d="M660.6,1093.5c-1.9-0.7-3.8-1.4-5.8-2c-0.4,1.6-0.9,3.2-1.3,4.8c4.7,1.5,9.3,2.9,14,4.4c0-1.6,0-3.2,0-4.8
					c-3,0.5-6,0.9-9.1,1.4c-1.5,0.2-3,0.5-4.4,0.7c-0.7,0.1-1.5,0.2-2.2,0.3c-0.4,0.1-0.8,0.1-1.2,0.2c-0.2,0-1.2,0-0.6,0.1
					c0.4,0.2,0.7,0.4,1.1,0.6c0.5,0.4,0.2,0.7,0.2,0.1c0-0.4-0.1-0.8-0.1-1.2c-0.1-0.8-0.2-1.6-0.3-2.4c-0.2-1.7-0.3-3.3-0.4-5
					c-0.2-3.3-0.4-6.6-0.4-9.9c0-3.2-5-3.2-5,0c0.1,3.6,0.2,7.2,0.5,10.9c0.1,1.7,0.3,3.5,0.5,5.2c0.1,0.8,0.2,1.6,0.3,2.4
					c0.1,1,0.2,2,0.7,2.8c1.3,2.1,3.7,1.3,5.7,1c1.7-0.3,3.5-0.5,5.2-0.8c3.6-0.6,7.3-1.1,10.9-1.7c1.1-0.2,1.8-1.4,1.8-2.4
					c0-1.1-0.8-2.1-1.8-2.4c-4.7-1.5-9.3-2.9-14-4.4c-1.3-0.4-2.7,0.5-3.1,1.7c-0.4,1.4,0.5,2.6,1.7,3.1c1.9,0.7,3.8,1.4,5.8,2
					c1.3,0.5,2.7-0.5,3.1-1.7C662.7,1095.2,661.9,1094,660.6,1093.5L660.6,1093.5z"/>
			</g>
		</g>
		<circle cx="401.9" cy="1365.7" r="9.6"/>
	</g>
</g>
</svg>
