<?xml version="1.0" encoding="utf-8"?>
<!-- Generator: Adobe Illustrator 24.0.1, SVG Export Plug-In . SVG Version: 6.00 Build 0)  -->
<svg version="1.1" id="Layer_1" xmlns="http://www.w3.org/2000/svg" xmlns:xlink="http://www.w3.org/1999/xlink" x="0px" y="0px"
	 viewBox="0 0 1728 1728" style="enable-background:new 0 0 1728 1728;" xml:space="preserve">
<style type="text/css">
	.st0{fill:#C7E2B4;}
	.st1{fill:#008175;}
	.st2{fill:#B72025;}
	.st3{fill:#0F101E;}
	.st4{fill:#E8A697;}
	.st5{fill:#F1AA99;}
	.st6{fill:#11111E;}
	.st7{fill:#EC8683;}
	.st8{fill:#2D2133;}
	.st9{fill:#A7797B;}
</style>
<circle class="st0" cx="871.7" cy="850.4" r="839.6"/>
<g id="girl">
	<path class="st1" d="M1087.8,1468.3c0,0-33.1,29.9-115.4,23.5c-82.3-6.4-89.1-15.5-89.1-15.5s-82.9-3.7-113.9,0
		c-31,3.7-60.9,1.6-60.9,1.6s-23,9.1-20.3-62c2.7-71.1,21.4-559.4,21.4-559.4s-51.8,3.2-43.3-64.1c0,0,25.1-79.6,26.2-188.6
		S687,471.3,687,471.3s3.7-25.1,41.1-33.1c0,0-9.6-107.9-15-122.9s-11.8-54-11.8-54s-8.6-119.3,99.3-153.1s169.4,24.4,169.4,24.4
		s85.1,64.9,78.4,211.6c0,0,0,39.4-13.6,60.2c0,0,121.1-3.8,125.3,82.9v87.8c0,0,66.8,66.1,35.2,106.2l-27,36.9
		c0,0,21.1,138.8,13.2,159.9c0,0-9.2,78.3-105.3,96.7l-0.7,109.9c0,0,9.2,174.2,32.7,334.9
		C1108.4,1419.6,1113.8,1454.5,1087.8,1468.3z"/>
	<path class="st2" d="M711,752.8c0,0-17.6-275.2-23.9-281.5c0,0,5.9-28.3,41.1-33.1c0,0,53.5,236.7,14.2,314.7
		C742.4,752.8,738.6,762.5,711,752.8z"/>
	<path class="st2" d="M991.8,757.1c0,0,35.2-255.4,105.5-297.6c0,0,12.7,4.9,11.3,34.5l51.7,81.2v-87.8c0,0,5.7-81.1-125.3-82.9
		c0,0-4.4,14.3,4,18.5c0,0-131.6,77.6-91.7,354.1h29.5L991.8,757.1z"/>
	<path class="st2" d="M1004.5,830.3c0,0,22.3,29,72.6,41l-0.7,103.6c0,0,89.1-11.5,105.3-96.7c0,0,8.7-23.3-13.2-159.9
		c0,0-38.2,49.9-105,83l7.3,45.3c0,0-16.8,0.7-45.5-23.4l-13.3-2.2l-6,0.7L1004.5,830.3z"/>
	<path class="st3" d="M855.9,1475.4c0,0,11,92.7,8.1,114.7h-29.7c0,0-8.5-28.9-19.5,0H662.4c0,0-7.7-45.9,41.9-47.6
		c49.6-1.6,54.9-22.4,54.9-22.4s39.5-19.5,25.2-44.9C784.4,1475.2,847.8,1473.3,855.9,1475.4z"/>
	<path class="st3" d="M1067.5,1479.9c0,0,10.3,86.8,7.4,108.8h-29.7c0,0-8.5-28.9-19.5,0H873.4c0,0-7.7-45.9,41.9-47.6
		c49.6-1.6,54.9-22.4,54.9-22.4s27.5-5.6,28.9-26C999,1492.7,1030.1,1492.7,1067.5,1479.9z"/>
	<path class="st4" d="M721.9,831.4c0,0-24.8,33.1-40.7-5.3s11.9-58.9,11.9-58.9l17.9-14.4c0,0,30.7,5,32,8.7c1.2,3.7-3.7,9-3.7,9
		s27.8,2.9,5.7,16.8c0,0,14.2,15.3-2.9,16.1c0,0,20.9,20.5-15.4,20.9C726.7,824.3,716.7,827.8,721.9,831.4z"/>
	<path class="st4" d="M1012,820.9c0,0-13.1-37.6-35.3-43.9h-29.5c0,0-41.1,22.2-39.1,39.7c0,0-0.4,7.6,8.5,4.2
		c0,0-6.5,21.5,5.7,23.7c0,0,0,15.2,17.3,7.5c0,0,1.4,21.6,22.6,6.1c0,0,40.7-19.4,42.2-28c1.5-8.6,1.5-8.6,1.5-8.6L1012,820.9z"/>
	<path class="st2" d="M1050,608v77.6c0,0,17-25.5,40-38.8c0,0-35.2-37.6-35.2-48.1C1054.9,598.7,1048.3,601.1,1050,608z"/>
	<path class="st3" d="M756.8,695.4c0,0,52.4,96.6,187.8,61.7l-3.2-32.7c0,0-90.4,45.3-184.6-50.2V695.4z"/>
	<path class="st5" d="M948.9,382.9c0,0-28.5,83.4-109.7,79S726.6,355.1,726.6,355.1s-13.5-61.4,30.2-106.8
		c0,0,37.8-100.2,114.6-27.8s89.2,79.7,89.2,79.7S979.4,335.1,948.9,382.9z"/>
	<path class="st3" d="M891.9,468.9c0,0-55.2,40.9-109.3-6.8c0,0-26.2-27.3-29.2-54c0,0,34.8,54.1,85.9,53.8c0,0,62,8.7,100.5-59.5
		C939.7,402.4,934.6,441.2,891.9,468.9z"/>
	<ellipse class="st6" cx="770.3" cy="311.7" rx="10.4" ry="16.5"/>
	<ellipse class="st6" cx="877.9" cy="303.8" rx="10.4" ry="16.5"/>
	<ellipse class="st7" cx="890.2" cy="356.4" rx="26.8" ry="15.4"/>
	<ellipse class="st7" cx="764.8" cy="365.3" rx="26.8" ry="15.4"/>
	<path class="st8" d="M786.7,275.8c1.1,1.2,0.4,3.1-1.2,3.3c-7.5,0.9-25.4,3.5-36.7,8.1c-14.7,6,6-12.6,6-12.6
		S775.2,263.5,786.7,275.8z"/>
	<path class="st8" d="M861.7,268c-0.8,1.4,0.3,3.1,1.9,3c7.5-0.8,25.5-2.4,37.6-0.5c15.7,2.4-8.7-10.9-8.7-10.9
		S870.1,253.3,861.7,268z"/>
	<path class="st9" d="M812.5,315.5c0,0,10.8-35.2-10-2.6c-13.6,21.2-9.4,39.8-4.9,50.3c3.2,7.5,10.4,12.8,18.5,12.9
		c4.9,0,10.4-1.8,14.8-7.7c7.7-10.3-2.4-7.8-9.3-5.3c-8.4,3.1-17.8-2.2-18.7-11.1C802.2,344.5,804.4,333.1,812.5,315.5z"/>
	<path class="st9" d="M827.8,413.7c0,0-34.7-6.7-9-10.3c4.7-0.7,9.4-0.3,14,0.6c7.4,1.6,22.1,1.8,37.4-13.7
		c12-12.2,13.1-8.5,11.7-2.7c-2.2,8.8-7.9,16.4-15.7,20.9C858.1,413.2,845.6,417,827.8,413.7z"/>
</g>
</svg>
