<?xml version="1.0" encoding="utf-8"?>
<!-- Generator: Adobe Illustrator 24.0.1, SVG Export Plug-In . SVG Version: 6.00 Build 0)  -->
<svg version="1.1" id="Layer_1" xmlns="http://www.w3.org/2000/svg" xmlns:xlink="http://www.w3.org/1999/xlink" x="0px" y="0px"
	 viewBox="0 0 1728 1728" style="enable-background:new 0 0 1728 1728;" xml:space="preserve">
<style type="text/css">
	.st0{fill:#9ACD74;}
	.st1{fill:#002C3A;}
</style>
<circle class="st0" cx="871.7" cy="850.4" r="839.6"/>
<g id="trees">
	<path class="st1" d="M1285.3,304.2c0,0,18.5-0.4,15.5-11.2s9.9-19.2,9.9-19.2s4.9,27.4,15.1,17.9s27.2,0,27.2,0s-13.6,8.1-2.7,10.9
		c10.9,2.7,24.7,23.2,24.7,23.2c4.8,2,6,14.8,6,14.8s-20.5-4.8-16.8-1.7c3.7,3.1,0.9,9.1,0.9,9.1l-8.8-3.7
		c-17.9-5.7-25.2,7.4-25.2,7.4l8,12.9l-14.3,3.5c14.9,1.1,26.3,19.8,26.3,19.8s-2.7-1.5-17.2,0c-14.5,1.5-9.2,6.5-9.2,6.5
		c24.8,0.8,32.8,25.2,32.8,25.2l-32.8-4.2c4.6,1.1,11.8,9.5,11.8,9.5h-21.7c0,0-0.8,13,2.3,10.3c3.1-2.7,14.1-6.9,14.1-6.9l-1.9,5
		l0.8,5.3l8.8,2.7l8.4,0.8l1.9-15.3c8.8,0.4,16.4,19.1,16.4,19.1s-1.9,17.2,2.3,10.7c4.2-6.5,15.3-10.7,15.3-10.7s-0.4,8.4,0.8,20.2
		c1.1,11.8,9.9,8,9.9,8c7.2-13,27.1-11.1,27.1-11.1c-4.2,3.4-5.7,16.4-5.7,16.4c13,0.8,13,8,13,8l-13.3,16
		c15.3-0.4,18.7,20.2,18.7,20.2h-10.7c6.9,12.2,4.2,27.1,4.2,27.1l-18.3-7.1v9c0,0-2.3,0.4-9.5-5.3c-7.2-5.7-10.3-3.1-10.3-3.1
		l4.8,9.5c0,0-8.6-4.6-19.7-3.1c-11.1,1.5-6.1,6.1-6.1,6.1c30.1,5.3,25.6,29.7,25.6,29.7l-28.6-13l4.6,8c6.1,5.7,0,6.5,0,6.5
		l-21-9.2v23.6l-5.3-4.2l-9.2,14.5c0,0,10.7,16,6.1,15.3s-11.8-6.1-11.8-6.1c-12.2,20.6-38.4,24-38.4,24v8.2
		c-2.5-2.5-17.6-8.2-17.6-8.2v22c0,0-18.9-17.6-20.1-11.3c-1.3,6.3-22.7,14.5-22.7,14.5h-14.5v27.1c-15.1-0.6-26.4-18.9-26.4-18.9
		c-3.8,4.4-13.8,6.9-13.8,6.9l-6.3,130.3c0,0-11.3,15.7-13.2,17.6s-2.5,11.3-2.5,11.3c-10.1,5-13,22-13,22s-4.7,17-5.9,24.6
		c-1.3,7.6-15.7,26.4-15.7,26.4c5.7,9.4,10.1,29,10.1,29l33.3,537.1h-116.1l9.6-573.1l-2.8-54.3c0,0-35.1-22-40.6-58.4
		c-5.5-36.4-9.6-95.6-9.6-95.6s-6.2-33.8-9-36.5c0,0-16.8,42.8-55.9,58.1l-3.8,7.7l-14.3-0.5c0,0-2.8,8.2,0,14.8
		c2.8,6.6-19.3-4.9-19.3-4.9s-13.4,19-35.3,20c0,0-1.6,15.5,4.5,23l-8.9,0.5l12,699.3h-66.7l11.7-641.5c0,0-18,44.1-88.4,75.8
		s-81.3,59-81.3,59s-5.8,34.5-7.2,59.7l5,448.6l-22.4,0l-5.7-452.2c0,0-61.8-46-78.4-148.1c0,0-35.2,16.5-51.1-64.7l-13-48l-11,11.8
		v-36.8l-49.4,1.6c0,0,3.9-17.2,15.7-19.6c0,0-13.3-5.5-15.7-17.2l-32.1-0.8l-12.5,7.1v-12.5l-13.3-1.6c0,0,7.8-9.4,21.2-14.1
		c0,0-10.2-5.5-21.2,2.4c-11,7.8-6.3-11-6.3-11l2.2-3.4l-13.5-0.8l9.7-20.4l-44.3,3.1c0,0,5.9-17.1,18.8-20.9
		c13-3.8-11.2-5.6-11.2-5.6s-10.4,11-10.2,17.1c0.3,6.1-13.8-18.8-13.8-18.8s-12.4-22.1-6.5-35.6c5.9-13.5-7.2,0.3-7.2,0.3
		s-7.3-9.8-2.4-28.9l3.3-10.2c0,0,4.9,1.6,1.6-7.7s6.9-7.7,6.9-7.7l-7.3-15.5c0,0,3.3-4.5,12.2-0.8s4-6.9,4-6.9l-5.8-28.1
		c0,0,17.1-3.3,27,12.7c9.9,16,12.7-11,12.7-11s-3.9-18.7-14.9-14.3l1.1-14.3l13.8-5c0,0-14.3-6.1-12.7-12.1l19.8-2.8
		c0,0,16.1-29.1,8-35.3c0,0,14.2,2.5,18,9.3c3.7,6.8,16.7-11.1,16.7-11.1l7.4-9.9c0,0,11.1,0,16.7,13c5.6,13,12.4,6.2,12.4,6.2
		s0.6,16.1,14.2,18s14.2-13.6,14.2-13.6s3.1,8,10.5,8s7.4-12.4,7.4-12.4l16.7,25.4l9.7-9.5c0,0,15.5-5.9,26.8,3.8
		c11.3,9.6,15.5-22.2,15.5-22.2L509,400.7c0,0,14.6-8.8,25.5-7.9c10.9,0.8,5.4-25.1,5.4-25.1l13,1.3l-1.7-13.4l6.7,3.3l32.3,9.6
		c0,0-14.5-25-10.5-29H603l-4.4-9.7c0,0,6.1-3.5,14.9,3.5c8.8,7,11.9,0.4,11.9,0.4l-3-19.6c0,0,16.1,6.5,15.5,16.7l17.9-5.1
		c0,0,2.8-5.7,1.1-10.3c0,0,9.5-0.6,10.2,10.3c0.7,10.8,20.7,10.1,20.7,10.1s9.5-12,10.2-18.3c0.7-6.3,1.8-12,1.8-12
		s12.7,15.8,14.1,32c1.4,16.2,9.8-7,9.8-7l5.6-3.2l3.2,9.1l1.4,22.2c0,0,3.2-0.7,9.1-10.9c6-10.2,12-15.1,12-15.1l0.4,36.2
		c0,0-4.2,4.9-1.1,4.9c3.2,0,10.5-4.6,10.5-4.6s4.9,7.4-2.1,13.4c0,0,18.3,10.9,17.6,22.9c0,0,6,4.9,6-6.7l-1.4-9.8
		c0,0,23.9,2.1,26,14.8c2.1,12.7,9.5-15.1,9.5-15.1s13.7,8.8,15.5,19.7c0,0,6,5.3,10.5-10.9c4.6-16.2,17.9-16.5,17.9-16.5
		s2.8,14.8,8.8,15.8c6,1.1,8.4-1.6,8.4-1.6v18.7c0,0,6.4,2.9,6.4-4.8s1.3-10.8,1.3-10.8l11.1,10.5c0,0,4.1-11.1-0.3-12.1
		c-4.4-1-15.6-2.5-15.6-2.5l0.6-6l-7.6-1c0,0,4.1-11.7,9.8-11.7c5.7,0-3.2-3.2-3.2-3.2s-18.7-3.5-20.6-9.8
		c-1.9-6.4,25.4-9.8,25.4-9.8l-0.6-4.4c0,0-21,0.3-31.8-7.9c0,0,3.5-4.8,22.9-7c19.4-2.2-8.6-7.5-8.6-7.5l15.9-16.7l-5.4-23.3
		c0,0,20.2-5.4,26.4,7.8c6.2,13.2,27.2-27.9,27.2-27.9s7.6-24.9,20.6-24.9l2.2,28.2c0,0,5.2-24.5,28.3-20.6
		c23.2,3.9,33.5,15.5,33.5,15.5l15.5,1.3c0,0-3.9,7.7-10.3,15.5c-6.4,7.7,14.2,7.7,14.2,7.7s14.2,0,15.5,7.7
		c1.3,7.7,21.9-12.9,21.9-12.9s5.2-18,3.9-27c-1.3-9,38.6,19.3,38.6,19.3l6.4-34.6c0,0,18,1.1,14.2,20.4
		c-3.9,19.3,14.2,14.2,14.2,14.2s2.6-16.7,11.6-12.9s20.6,11.6,20.6,11.6s30.9-7.7,24.5-23.2c0,0,27-2.6,28.3,18s19.3,9,19.3,9
		l27-10.3C1284.5,267.5,1270.6,298.3,1285.3,304.2z"/>
	<path class="st0" d="M543.8,782.9c0,0,1,84.5,5.8,91.9c4.9,7.4-13.3,1.9-13.3,1.9s-27.2-15.5-34.3-74.1
		C502.1,802.6,533.5,793.5,543.8,782.9z"/>
	<path class="st0" d="M547.7,802v-13.6c0,0,3.2-8.7,5.2,1.9c0,0,0.3,22.3,7.8,25.6c0,0,3.6-13.3,33.7-19.4c0,0-2.2,105.7,60.8,111.3
		c0,0-18.4,48.8-24.8,105.5C630.4,1013.2,558.5,972.9,547.7,802z"/>
	<path class="st0" d="M605.2,838.8c0,0,23,85.2,70.5,47.5c0,0,33.4-13.2,53-59.2l-8,7.4c0,0-4.9-21.5-3.4-27.9
		c1.5-6.4-14.1,12.3-14.1,12.3s-3.4-10.4-2.1-13.6c0,0-2.8-2-5.2,7.8s-10.1,16.3-10.1,16.3s-12-22.7-9.5-36.2h-3.1l-1.2,13.2
		c0,0-8.6-0.3-11-4.9c0,0-9.8,6.4-13.2,4.3c0,0-12,7.1-17.2,1.8C630.6,807.5,630.6,825.6,605.2,838.8z"/>
	<path class="st0" d="M663,955.1c0,0,4.5-61.9,32.6-72.6c28.1-10.7,47.8-72.9,47.8-72.9s20.3-16.9,21.7,7.9c0,0,2.5,12.4,14.1,11.5
		c0,0,7.9-25,25-29.5c17.2-4.5,19.4,43.6,19.4,43.6s-26.6,45-83.7,62.4C683,922.9,663,955.1,663,955.1z"/>
	<path class="st0" d="M956.8,684.7c0,0-11.3-18.5-33.9-22.1l-1.8-22.1c0,0,27,11.6,35.7,10.5c0,0-2.6-9.8-9.8-15.7
		c0,0,27.2,14.1,35.9,14.1c8.7,0-5.4,10.5-5.4,10.5s5.9,3.1,12.3,0C989.9,660,987.6,680.6,956.8,684.7z"/>
	<path class="st0" d="M985.2,641.4l-12.5-21.2c0,0,17.1,5.2,17.2,15.2S985.2,641.4,985.2,641.4z"/>
	<path class="st0" d="M1016,671.8c0,0-6.8-20.1,8.8-16.2v29.1c0,0,0.3,9.8,4.5,11.1c0,0,23-19.8,25-29.8s11.7,1.9,11.7,1.9
		s-1,21.7-6.5,27.9l3.2,133.6c0,0-26.6-10.7-32.7-44.1C1029.9,785.3,1017.3,678.7,1016,671.8z"/>
	<path class="st0" d="M1104,695c0,0-10.4,9.4-13.3-3.7c-2.8-13.1,13.3-2.2,13.3-2.2S1106.8,693,1104,695z"/>
	<path class="st0" d="M1117.5,532.9c0,0-10.5-11.3,3.2-3.6c13.8,7.7,0,8.1,0,8.1L1117.5,532.9z"/>
	<path class="st0" d="M1138.2,534.1c0,0-18.2-8.9,2-5.3s11.7,8.5,11.7,8.5S1143.4,540.2,1138.2,534.1z"/>
	<path class="st0" d="M1170.1,563.2c0,0,1.2,8.5-6.5,2.8s-4.5-9.7-4.5-9.7S1172.6,549.9,1170.1,563.2z"/>
	<path class="st0" d="M1122,864c0,0-6.1-26.1-3.5-52.7c2.6-26.6,6.5-102.8,6.5-102.8s17-7,17.9-13.5c0,0,25.7,2.3,30.5-3.4
		c0,0-15.8,92-17,128.9C1156.4,820.4,1127.3,843.1,1122,864z"/>
</g>
</svg>
