<svg id="Layer_1" data-name="Layer 1" xmlns="http://www.w3.org/2000/svg" viewBox="0 0 2332.03 2332.03"><defs><style>.cls-1{fill:#238982;}.cls-2{fill:#57ba5b;}</style></defs><title>earth</title><g id="earth"><path class="cls-1" d="M2346.52,1180.15c0,644-522,1166-1166,1166s-1166-522.05-1166-1166c0-233.36,68.55-450.7,186.62-633,207.74-320.77,568.78-533,979.4-533C1824.48,14.14,2346.52,536.18,2346.52,1180.15Z" transform="translate(-14.49 -14.14)"/><path class="cls-2" d="M200.25,545.65c-14.9,21.94-3.68,58.85-3.68,58.85s-33.11,44.14-25.75,132.42S259.1,825.2,259.1,825.2s18.39,58.85,40.46,73.56,11,33.11,11,33.11S347.38,965,347.38,987s7.35,47.82,7.35,47.82,14.72,29.43,51.5,14.71,0,77.25,0,77.25-40.46,33.1-29.43,147.13c0,0,40.47,40.46,22.07,69.89s22.07,73.56,22.07,73.56,25.75,36.78,66.21,51.5c0,0,33.11,0,25.75,29.42s25.75,58.86,25.75,58.86,22.07,40.46,7.36,117.7c0,0-14.72,47.82,3.67,73.57s18.39,125.06,18.39,125.06-3.67,44.14,40.47,69.88c0,0-3.68,110.35,80.92,125.07,0,0,29.42,3.67,40.46,11s36.78-7.36,36.78-7.36,3.68-25.74-14.71-36.78-3.68-51.49-3.68-51.49,36.78-18.4,18.39-55.18,44.14-84.6,44.14-84.6S844,1799.94,855,1755.8c0,0,3.68-55.17,55.17-58.85s58.86-33.1,58.86-33.1l47.81-3.68s33.11-22.07,36.79-58.86,33.1-66.2,33.1-66.2,110.35-44.14,92-132.42-58.85-114-58.85-114-44.14-18.39-84.6-11L980,1222.45s-36.78-11-51.49-3.68-25.75-58.85-25.75-58.85-14.71-58.85-73.57-80.92c0,0-33.1-29.43-47.81-29.43s-62.54-18.39-62.54-18.39-14.71-40.46-44.14-40.46S564.4,961.29,564.4,961.29s-33.11-22.07-69.89,7.36c0,0-25.75,44.14-36.78,40.46s-36.79-7.35-36.79-7.35-18.39-33.11-36.78-40.47-3.68-47.81-3.68-47.81S376.8,880.37,340,876.69s-7.36-51.49-7.36-51.49,33.11-33.11,0-55.18a398.41,398.41,0,0,1-55.17-44.14s-44.14-92,36.78-132.41,121.39-25.75,121.39-25.75,36.78,14.71,33.1,47.82,33.11,55.17,33.11,55.17S557,663.35,557,608.18,571.75,553,571.75,553s66.21-25.75,73.57-69.89S693.14,450,693.14,450s62.53-25.74,77.24-44.14,58.85-3.67,58.85-3.67,58.86,11,58.86-44.14,55.17-11,55.17-11,77.24,3.68,58.85-55.17-36.78-55.18-36.78-55.18,0-22.07,11-25.74-3.67-29.43-3.67-29.43-18.4-7.36-33.11,0c0,0-22.07-51.5-47.82,0,0,0-14.71,25.75-33.1,25.75s-33.11,29.42-33.11,29.42-55.17,103-95.63,14.72,92-121.39,92-121.39,14.71-22.07,36.78-14.71,36.78-3.68,36.78-3.68,40.46-11,55.18,18.39,58.85,3.68,58.85,3.68-3.68-40.46,22.07-44.14-2.67-65.63-2.67-65.63S535,52.76,200.25,545.65Z" transform="translate(-14.49 -14.14)"/><path class="cls-2" d="M514.74,768.18s-62.53-29.42-80.92-33.1c0,0-29.43-7.36,7.35-22.07s99.32,36.78,99.32,36.78S551.52,779.22,514.74,768.18Z" transform="translate(-14.49 -14.14)"/><path class="cls-2" d="M485.31,819.68s-33.1-22.07,14.72-29.43,14.71,29.43,14.71,29.43S492.67,827,485.31,819.68Z" transform="translate(-14.49 -14.14)"/><path class="cls-2" d="M558.88,797.61s22.07-18.39,33.1,0S588.31,827,588.31,827H540.49S514.74,808.65,558.88,797.61Z" transform="translate(-14.49 -14.14)"/><path class="cls-2" d="M625.09,834.39s-33.11-25.74,0-36.78,44.14,25.75,44.14,25.75S650.84,845.43,625.09,834.39Z" transform="translate(-14.49 -14.14)"/><path class="cls-2" d="M1121.66,73s-62.53-51.5,44.14-36.78c0,0,25.74,29.42,66.2,11s44.14,7.36,44.14,7.36,88.28-18.39,55.18,25.75-55.18,47.81-55.18,47.81-47.81,0-66.21,33.11-36.78,44.14-36.78,44.14-47.82,22.07-62.53-29.43S1121.66,73,1121.66,73Z" transform="translate(-14.49 -14.14)"/><path class="cls-2" d="M1563.05,337.83s-47.82,3.67-25.75-33.11,51.5,0,51.5,0S1588.8,341.5,1563.05,337.83Z" transform="translate(-14.49 -14.14)"/><path class="cls-2" d="M1566.73,275.29s-47.82-44.13,3.68-44.13,103,92,103,92,40.46,77.25-40.46,55.18c0,0-29.43-3.68-29.43-47.82S1566.73,275.29,1566.73,275.29Z" transform="translate(-14.49 -14.14)"/><path class="cls-2" d="M2341.37,1290.46s-42.66,33.14-42.66,62.57-36.79,176.56-36.79,176.56-25.75,80.92-95.63,136.09c0,0-44.14,29.43-47.82,77.25s-51.5,110.35-51.5,110.35-44.14,80.92-143.45,51.49c0,0-62.53-3.68-14.71-55.17s-11-66.21-11-66.21-44.14-11,14.72-77.24,36.78-92,36.78-92,44.14-7.36,25.75-88.28c0,0,0-22.07-14.72-33.1s-3.67-40.47-3.67-40.47,66.2-33.1,29.42-139.77c0,0,14.71-33.1-18.39-51.5s3.68-80.92,3.68-80.92-11-33.1-47.82-36.78-51.49-33.11-51.49-33.11-29.43-14.71-51.5,14.72-172.88-7.36-172.88-7.36-88.28-47.82-92-92,33.11-92,33.11-92,22.07-40.46,0-62.53,3.68-114,3.68-114,3.67-51.5,69.88-66.21c0,0,11-88.28,103-88.28,0,0,121.39-29.42,191.28,14.71s95.63,33.11,95.63,33.11,25.75-14.71,51.5,0,40.46-3.68,40.46-3.68-14.72-80.92-47.82-80.92a290.13,290.13,0,0,1-62.53-7.36s-11-29.42-25.75-11-29.42,3.68-29.42,3.68-11-44.14-40.47-18.4-47.81-7.35-47.81-7.35,11-51.5-40.46-47.82c0,0-7.36,44.14-33.11,7.36s-51.5,33.1-51.5,33.1-36.78,80.92-128.73,14.71,14.71-84.6,14.71-84.6,69.89,33.11,69.89-14.71c0,0-3.68-22.07,36.78-33.1s-14.71-92-14.71-92,7.35-11-22.07-18.39-44.14-55.18-44.14-55.18-11-7.35-18.4,7.36-33.1-14.71-33.1-14.71-36.78-33.11-33.1-51.5-11-14.71-11-14.71-36.78-25.75,14.71-33.11,129.48,21,129.48,21S2402.43,470.17,2341.37,1290.46Z" transform="translate(-14.49 -14.14)"/><path class="cls-2" d="M774.5,2273.52s5.08-45.06,52.89-34c0,0,29.43,3.67,33.11-18.39s47.82-36.79,47.82-36.79,22.07-3.68,14.71,29.43,92,51.49,92,51.49,55.17,14.72,69.88,3.68,47.82,0,47.82,0,62.53,7.36,80.92-7.35,77.25,0,77.25,0,47.81,36.78,88.28,3.67,73.56-3.67,73.56-3.67,40.46-36.79,73.57-7.36,45,24.85,45,24.85S1207.13,2432.61,774.5,2273.52Z" transform="translate(-14.49 -14.14)"/></g></svg>