<svg id="pic1" data-name="Layer 1" xmlns="http://www.w3.org/2000/svg" viewBox="0 0 922.39 957.58"><defs><style>.cls-1{fill:#002c3a;}.cls-19,.cls-2,.cls-21{fill:none;}.cls-20,.cls-3{fill:#42ad7a;}.cls-17,.cls-4{fill:#008175;}.cls-5{fill:#f9ab8d;}.cls-6{fill:#f8fbef;}.cls-7{fill:#893f1e;}.cls-8{fill:#f5987e;}.cls-9{fill:#21354e;}.cls-10{fill:#1b5a7b;}.cls-11{fill:#f9f9fa;}.cls-12{fill:#a9a2a3;}.cls-13{fill:#787677;}.cls-14{fill:#98d3e1;stroke:#888989;}.cls-14,.cls-19,.cls-20,.cls-21,.cls-22{stroke-miterlimit:10;}.cls-15{font-size:4.26px;fill:#fff;font-family:PressStart2P-Regular, "Press Start 2P";}.cls-16,.cls-18,.cls-22{fill:#c7e2b3;}.cls-17{font-size:31.34px;}.cls-17,.cls-18{font-family:TheBoldFont, The Bold Font;}.cls-18{font-size:27.86px;}.cls-19,.cls-20{stroke:#42ad7a;}.cls-21,.cls-22{stroke:#c7e2b3;}</style></defs><title>pic1</title><g id="graphic"><g id="couch"><g id="legs"><rect class="cls-1" x="59.64" y="914.8" width="32" height="42.53"/><rect class="cls-1" x="716.57" y="910.5" width="32" height="47.08"/><rect class="cls-1" x="160.95" y="903" width="32" height="54.32"/><polygon class="cls-1" points="791.83 891.26 791.83 957.32 823.83 957.58 823.83 891.26 791.83 891.26"/></g><rect class="cls-2" x="130.34" y="856.1" width="443.11" height="57.44"/><path class="cls-3" d="M1254.59,1276.4H490.82v-73.06s-54.12-48,0-89.3v-14.88s-57.88.27-59.57-50.51,30.81-62,30.81-62,0-4.4,27.42-7.11h190V890s3.61-26,44-27.41H1196.7s33.07.49,46.58,22.66,12.12,32.9,12.12,32.9v62s52.38.41,58.83,46.68-27.24,63-27.24,63-8.5,8.5-31.93,9.08Z" transform="translate(-431.18 -361.6)"/><path class="cls-4" d="M994.55,1098.64s-58.07,2.11-57.49,53.55,39.88,63,39.88,63a61.41,61.41,0,0,0,17.61,2.51Z" transform="translate(-431.18 -361.6)"/><rect class="cls-1" x="118.29" y="856.1" width="12.05" height="57.44"/><path class="cls-1" d="M1004.64,1217.7V1089.81H678.31V979.58h-180s31.78,6.36,44.07,31.65c0,0,6.71,10.43,7.57,22.71v64.7H994.55V1217.7Z" transform="translate(-431.18 -361.6)"/><path class="cls-1" d="M1063.49,1276.4V1099s51,0,57.91-54-47.1-64.08-47.1-64.08h-6.59l70.68-1.74V914.25s-1-31.45,23-43.91c0,0,6.85-4.38,21-7.77H1200s28.08,2.23,40.64,18.84a79.57,79.57,0,0,1,14.78,34.39v64.31s52.7.47,58.85,46.68-27.24,63-27.24,63-6.42,7.47-31.93,9.08V1276.4Z" transform="translate(-431.18 -361.6)"/><g id="button"><circle class="cls-4" cx="343.23" cy="564.91" r="9.22"/><circle class="cls-4" cx="610.99" cy="566.12" r="9.22"/><circle class="cls-4" cx="54.09" cy="675.92" r="9.22"/><circle class="cls-4" cx="632.31" cy="675.92" r="9.22"/></g></g><g id="person"><path class="cls-5" d="M621.36,970.45s-51-5.75-79.5-57.21-22.58-85.91-22.58-85.91,4-29.1,27.12-46.34S601,765.83,601,765.83s21.68-2.39,36.12,13.32a198.69,198.69,0,0,1,23.15,30.69l7.62,27.23s14.43,17,13.89,30.27-1.49,18.49-1.49,18.49l16.59,48.46s2.7,6.74,22.13,8.9,25.09,16.19,25.09,16.19,3.49,13.07,0,19.69l22.17,36.59a33.26,33.26,0,0,1,31-7.83s16,13.24-2.61,23.5l40.85-2s6.16.56,8.77,2l58.53-62.95s30.59-34.91,63.5,0L995.78,1001l206.91-47.67,15.89-33.5s15-11,14.15,6.64l-16.17,33.22s5.23,11.05-5.35,18.15a36.89,36.89,0,0,1-12.45,2.9c-6.81.29-64.9.29-64.9.29l-124.18,32.87s-6.77,9-6.51,30.65l-15.85-16.24-130.7,30.93s-4.89,22.23-33.7,36-79.48-2.21-79.48-2.21-40.52-21.2-67.69-63.94l-31.81-48-.34,210.42v10.63s-1.8,6.13-6.31,8.12l-.18,16s-11.35,20.19-25.77,0c0,0-4.51-32.45,10.81-37.32l-.56-156.09Z" transform="translate(-431.18 -361.6)"/><path class="cls-6" d="M643.85,1034.16H621.59v-69a12,12,0,0,1,8.83-9.76L643,947.48l14.45,14.85s32.15,12.62,26.25-17.5a26,26,0,0,0-6.51-10l-6.92-4.68s12.34-4.59,20.35,1.23c0,0,8.19,9.47,24.29,12s16.94,4.4,16.94,4.4,12.35,6.31,13,16.24c0,0,1.92,9-.82,15.78l22.17,36.6s-13.26,13.54-7,24.37,18.53,3,18.53,3l7.5-10,9.32-1.72,10-.5a47.72,47.72,0,0,0-29.08,36.08s.69,19.1,6.06,33.38c0,0-30.3-2.42-36.35-6.78,0,0-31.12-17-41.74-30.69,0,0-33.17-35-42.82-56.54l-16.73-25.28Z" transform="translate(-431.18 -361.6)"/><path class="cls-7" d="M522.62,868.31s3.82,25.28,28.4,60.78,70.34,41.36,70.34,41.36l.23-6a12,12,0,0,1,8.83-9.77l5.6-3.52,7-4.42,1-1.74-10.64-27.64s-3.69,2.07-16.55,2.07a78.73,78.73,0,0,1-22-3c-4.3-1.05-8.87,1.78-8.87,1.78s-9.46,11.67-24.09,3.1-7.54-26-7.54-26l26.16-23.65c31-30.59,14.49-66.06,14.49-66.06l7.32,3.11c18.51,10.24,43.32,1.77,43.32,1.77l22.29,26.57-7.62-27.23s-11.52-30.69-37.73-41-52.21-1.08-52.21-1.08-9.39,1.83-21.68,9.49C548.61,777.21,499.44,799.75,522.62,868.31Z" transform="translate(-431.18 -361.6)"/><path class="cls-7" d="M658.41,909.42l8.76,21,3.13-1a38.85,38.85,0,0,1,11.6-1.67,22.76,22.76,0,0,1,7.92,2.34l4.26,3.68,2.7,1.94-16.53-49.9s-1,9.88-8.52,15.18A144.5,144.5,0,0,1,658.41,909.42Z" transform="translate(-431.18 -361.6)"/><path d="M611.88,850.63s4.12,19-17.42,14.72c0,0-7-4.85,3-5.38,0,0,11.31,4.48,9.7-7.9C607.21,852.07,607.39,842.37,611.88,850.63Z" transform="translate(-431.18 -361.6)"/><path d="M645.9,821.37s4.12,19-17.42,14.72c0,0-7-4.85,3-5.39,0,0,11.31,4.49,9.7-7.9C641.23,822.8,641.41,813.11,645.9,821.37Z" transform="translate(-431.18 -361.6)"/><path class="cls-8" d="M602.67,891.58c-5-.2-9-2.72-3.78-12.51a16.34,16.34,0,0,1,3.28-4.25h0a20.9,20.9,0,0,1,10.75-5.49c4.9-.8,10.05.27,7.65,9.51a15.48,15.48,0,0,1-4.11,7h0A18.72,18.72,0,0,1,602.67,891.58Z" transform="translate(-431.18 -361.6)"/><path class="cls-8" d="M651.41,849.09c-3.61-.15-6.56-2-2.75-9.4a12.3,12.3,0,0,1,2.38-3.2h0a15.07,15.07,0,0,1,7.81-4.13c3.57-.6,7.31.21,5.56,7.16a11.72,11.72,0,0,1-3,5.29h0A13.37,13.37,0,0,1,651.41,849.09Z" transform="translate(-431.18 -361.6)"/><path class="cls-8" d="M662.09,859.06s11.63,37.16-27.66,26c0,0-2.27-2.78,1.73-3.44,0,0,28.55,8.35,23.15-17C659.31,864.63,657.35,856.44,662.09,859.06Z" transform="translate(-431.18 -361.6)"/><path class="cls-9" d="M1025,994.24s-12,10.7-15.28,19.62l-22,14.81L856.62,1059.2h-1.36l1.81-2.71,29.32-32.11Z" transform="translate(-431.18 -361.6)"/><path class="cls-10" d="M781.58,1101s-25-51,23-69.46l19.56-1s14.31-2.12,20.05,1.48l58.53-63s28.89-36,63.5,0l43.44,45.49s-6.14,8.07-6.51,30.65l-36.59-37.5-22.84-23.4s-9-10.07-20.14,0l-39,42.73-27.52,30.14s-4.23,32.06-45.55,42.51C811.52,1099.71,809.38,1101.27,781.58,1101Z" transform="translate(-431.18 -361.6)"/><path class="cls-9" d="M1144.34,966.74s-6.3,5-5.95,12.39l-.29,1.86-55.27-.43Z" transform="translate(-431.18 -361.6)"/><path class="cls-1" d="M1068.14,980.65s47.66,6.08,53.45,47.66L1144.34,981Z" transform="translate(-431.18 -361.6)"/><path class="cls-3" d="M1009.68,1013.86s10.2-34.07,58-33,53.88,47.44,53.88,47.44l-34.81,15.85Z" transform="translate(-431.18 -361.6)"/><path class="cls-4" d="M886.39,1024.38l37.21-40.77s9.7-10.7,20.14,0L966.58,1007Z" transform="translate(-431.18 -361.6)"/></g><g id="AIR"><g id="air-2" data-name="air"><path class="cls-11" d="M880.28,836.49s34.2-34.92,0-89,7.6-111.74,7.6-111.74,4.86-7.2.58-10.77-9.27,3.21-9.27,3.21-47.44,67.77-6.43,123.77c0,0,30,46.93,2.79,72.86a26.58,26.58,0,0,0-6,8.68l-.07.16c-2.07,4.84,3.91,9.22,7.94,5.84A22.3,22.3,0,0,0,880.28,836.49Z" transform="translate(-431.18 -361.6)"/></g><g id="air-3" data-name="air"><path class="cls-11" d="M964.33,804.86s34.2-34.91,0-89,7.6-111.74,7.6-111.74,4.85-7.2.57-10.77-9.27,3.21-9.27,3.21-47.44,67.77-6.42,123.77c0,0,30,46.93,2.79,72.86a26.58,26.58,0,0,0-6,8.68.77.77,0,0,0-.07.16c-2.07,4.84,3.9,9.22,7.94,5.84A22.93,22.93,0,0,0,964.33,804.86Z" transform="translate(-431.18 -361.6)"/></g><g id="air-4" data-name="air"><path class="cls-11" d="M1055.9,831.81s34.2-34.92,0-89S1063.5,631,1063.5,631s4.85-7.2.57-10.77-9.27,3.21-9.27,3.21-47.44,67.77-6.42,123.77c0,0,30,46.93,2.79,72.86a26.58,26.58,0,0,0-6,8.68,1.11,1.11,0,0,0-.07.16c-2.07,4.84,3.9,9.22,7.94,5.84A23.44,23.44,0,0,0,1055.9,831.81Z" transform="translate(-431.18 -361.6)"/></g><g id="air-5" data-name="air"><path class="cls-11" d="M789.45,800.21s34.19-34.92,0-89,7.6-111.74,7.6-111.74,4.85-7.21.57-10.77-9.27,3.21-9.27,3.21-47.44,67.76-6.42,123.76c0,0,30,46.93,2.78,72.86a26.58,26.58,0,0,0-6,8.68l-.06.16c-2.07,4.85,3.9,9.23,7.94,5.84A22.78,22.78,0,0,0,789.45,800.21Z" transform="translate(-431.18 -361.6)"/></g></g><rect class="cls-1" x="268.27" y="48.79" width="426.56" height="161.74" rx="26.87"/><path class="cls-12" d="M1096.81,555.35H728.6a8.48,8.48,0,0,1-8.46-8.45l-6.88-36.79c0-1,.64-1.21,1.65-1.21l395.25-.39c1,0,1.74,1.13,1.74,2.15l-6.17,35.77A9,9,0,0,1,1096.81,555.35Z" transform="translate(-431.18 -361.6)"/><rect class="cls-13" x="300.84" y="156.18" width="361.42" height="3.93" rx="1.84"/><rect class="cls-13" x="300.84" y="166.4" width="361.42" height="3.93" rx="1.84"/><rect class="cls-13" x="300.84" y="176.62" width="361.42" height="3.93" rx="1.84"/><rect class="cls-13" x="301.04" y="186.22" width="361.42" height="3.93" rx="1.84"/><rect class="cls-13" x="390.17" y="124.98" width="183.25" height="9.35" rx="1.84"/><rect class="cls-14" x="288.62" y="64.59" width="49.08" height="24.45" rx="6.79"/><text class="cls-15" transform="translate(292.05 73.61) scale(1 1.27)">19</text><text class="cls-15" transform="translate(316.36 73.61) scale(1 1.27)">COOL</text><g id="cfc"><circle class="cls-16" cx="704.79" cy="326.54" r="39.45"/><text class="cls-17" transform="translate(677.1 337.91)">CFC</text></g><g id="hcfc"><circle class="cls-3" cx="776.61" cy="249.98" r="39.45"/><text class="cls-18" transform="translate(743.39 258.1)">hcfc</text></g><g id="cfc-2" data-name="cfc"><circle class="cls-16" cx="752.6" cy="156.18" r="39.45"/><text class="cls-17" transform="translate(724.91 167.55)">CFC</text></g><g id="hcfc-2" data-name="hcfc"><circle class="cls-3" cx="855.5" cy="124.98" r="39.45"/><text class="cls-18" transform="translate(822.28 133.11)">hcfc</text></g><path class="cls-19" d="M1218.3,688.14s56.11-10.41,68.38-64.24,51.6-68.55,51.6-68.55" transform="translate(-431.18 -361.6)"/><polygon class="cls-20" points="903.14 186.22 909.22 202.05 921.37 186.22 903.14 186.22"/><path class="cls-21" d="M1144.34,450.64s25.1-35.69,74-24.45,81-43,81-43" transform="translate(-431.18 -361.6)"/><polygon class="cls-22" points="855.5 14.21 879.07 28.44 879.07 0.86 855.5 14.21"/></g></svg>