<?xml version="1.0" encoding="utf-8"?>
<!-- Generator: Adobe Illustrator 24.0.1, SVG Export Plug-In . SVG Version: 6.00 Build 0)  -->
<svg version="1.1" id="Layer_1" xmlns="http://www.w3.org/2000/svg" xmlns:xlink="http://www.w3.org/1999/xlink" x="0px" y="0px"
	 viewBox="0 0 1728 1728" style="enable-background:new 0 0 1728 1728;" xml:space="preserve">
<style type="text/css">
	.st0{fill:#02555F;}
	.st1{fill:#42AD7A;}
	.st2{fill:#9ACD74;}
	.st3{fill:#C7E2B3;}
</style>
<g id="graphic_1_">
	<path class="st0" d="M963.3,556.3h267.1c0,0,13.3-76.2-57.1-74.7c-4.2-8.5-63.3-106.9-135.9,0C1037.5,481.6,960,460.1,963.3,556.3z
		"/>
	<path class="st1" d="M435.1,619.9h375.4c0,0,18.7-107-80.2-104.9c0,0-80.9-162.2-191,0C539.3,515,430.4,484.8,435.1,619.9z"/>
	<g>
		<polygon class="st2" points="1026.9,1368.5 1026.9,665.1 1059.8,665.1 1059.8,1368.6 		"/>
		<circle class="st2" cx="1043.3" cy="665.1" r="26.8"/>
		<path class="st2" d="M1069.4,672.5c0,0,141.4,13.4,300.9-19.3c0,0-200.2-24.5-306.5,4.6l-4.7,15.4L1069.4,672.5z"/>
		<path class="st2" d="M1028.2,688.7c0,0-75.8,120.1-199.3,226.3c0,0,103-173.4,191-239.7l15,5.7L1028.2,688.7z"/>
		<path class="st2" d="M1026.2,645.8c0,0-65.2-126.2-94.3-286.4c0,0,97.4,176.6,110.1,286.1l-12.6,10.1L1026.2,645.8z"/>
	</g>
	<g>
		<rect x="751.8" y="763" class="st3" width="38.1" height="605.6"/>
		<circle class="st3" cx="770.9" cy="763" r="31"/>
		<path class="st3" d="M794.5,781.2c0,0,136.8,90.9,317.3,144.6c0,0-190.7-134.4-315-162.7l-13.2,13.2L794.5,781.2z"/>
		<path class="st3" d="M742,781.2c0,0-139.8,86.2-322,133.8c0,0,195.2-127.8,320.3-152l12.7,13.6L742,781.2z"/>
		<path class="st3" d="M760.4,732.7c0,0-21.7-162.8,9.2-348.6c0,0,37.1,230.3,8.1,354.5l-17.6,6.1L760.4,732.7z"/>
	</g>
</g>
</svg>
