<?xml version="1.0" encoding="utf-8"?>
<!-- Generator: Adobe Illustrator 24.0.1, SVG Export Plug-In . SVG Version: 6.00 Build 0)  -->
<svg version="1.1" id="Layer_1" xmlns="http://www.w3.org/2000/svg" xmlns:xlink="http://www.w3.org/1999/xlink" x="0px" y="0px"
	 viewBox="0 0 1728 1728" style="enable-background:new 0 0 1728 1728;" xml:space="preserve">
<style type="text/css">
	.st0{fill:#008175;stroke:#02555F;stroke-miterlimit:10;}
	.st1{fill:none;stroke:#02555F;stroke-miterlimit:10;}
	.st2{fill:#C7E2B3;stroke:#02555F;stroke-miterlimit:10;}
	.st3{fill:#C4C42F;stroke:#5E5624;stroke-miterlimit:10;}
	.st4{fill:#7F2921;}
	.st5{fill:#635E28;stroke:#5E5624;stroke-miterlimit:10;}
	.st6{fill:#B7A932;stroke:#0C5C51;stroke-miterlimit:10;}
	.st7{fill:#F6E033;stroke:#0C5C51;stroke-miterlimit:10;}
	.st8{fill:none;stroke:#7F7D70;stroke-width:3;stroke-miterlimit:10;}
	.st9{fill:#7F7D70;}
</style>
<g id="food">
	<g id="plate_2_">
		<circle id="plate" class="st0" cx="986.4" cy="459.8" r="459.8"/>
		<path id="plate_1_" class="st1" d="M1080.3,152.8c0,0-344.1-74.1-396.7,282.7"/>
	</g>
	<path id="fork" class="st2" d="M1256.7,346.7l-116.5,88.9l128.5-52l-96.5,100.5l122.8-67l-70.2,91.9c0,0,102.3-47.6,144.8-96
		c42.6-48.4,18.5-76.4,18.5-76.4l243.6-152l-21.4-34.3l-242.1,151c0,0-26.9-43.1-80-18.6c-53.1,24.4-147.6,97.6-147.6,97.6
		L1256.7,346.7"/>
	<g id="pizza">
		<path class="st3" d="M814.2,712.3c-13.9-15.4-36.6-19.3-55-9.5c-50.5,26.7-148.2,88.4-187.9,181.4c-10.2,24-1.5,48.1,19.4,71.4
			c43.7,48.7,137.1,77.5,225.8,111.3c5.3,2.1,16.8-8.1,22.2-6.2c4.7,1.8,28.2-11.7,32.7-10c82.5,29.8,129.6,70.4,129.6,70.4
			s-24.9-212.8-168.6-387.8C826.5,726.2,820.5,719.2,814.2,712.3z"/>
		<circle class="st4" cx="784.3" cy="997.4" r="36.6"/>
		<path class="st5" d="M612.4,940.5c57.3-83,79.6-104.9,79.6-104.9s64.4-66.5,140.5-102.1c0,0-31.4-55-73.2-30.6
			c0,0-144.2,71.4-187.9,181.4C571.3,884,578.7,989.2,612.4,940.5z"/>
		<circle class="st4" cx="898.7" cy="975.9" r="23.8"/>
		<circle class="st4" cx="840.4" cy="875.6" r="42.9"/>
		<circle class="st4" cx="675.5" cy="944.8" r="27.2"/>
		<circle class="st4" cx="940.6" cy="1040.2" r="24.4"/>
	</g>
	<g id="banana">
		<path class="st6" d="M1158.3,1374.4c0,0-13.1,67-82.5,89c0,0,27,2.6,106.8-36.9c79.8-39.7,84.8-171.4,84.8-171.4l-51.3-24.3
			L1158.3,1374.4z"/>
		<path class="st7" d="M1248.4,1086.9c-37.4,84.2-185,372.6-435,337.8c0,0,35,32.9,158.4,38.4c50.5,2.3,109.2-34.5,161-78.7
			c74.8-63.8,135-143.2,135-143.2s-150.7,180.9-12.3,374.3c0,0-43.9-135.1,34.5-249.2c78.2-113.8,132.2-343.1,132.5-344.7l0,0
			c0.2-0.8,17.6-59.1,22.2-115.6c4.5-56.8-68.9-4.5-68.9-4.5s-42.1,53.1-100.3,137.6C1264.9,1053.9,1256,1070.1,1248.4,1086.9z"/>
		<path class="st7" d="M1392.2,965.7c0,0-25.7,111.5-111.3,235.5"/>
		<polygon class="st7" points="1424.8,879.5 1442.2,832.7 1466.8,844.3 1441.7,886.4 		"/>
	</g>
	<g id="fish">
		<path class="st8" d="M444.7,1590.8l219.8-286.5l-10.4-90.3c0,0,14.6,31.7,43.4,53.1s58.1,31.2,58.1,31.2"/>
		<path class="st9" d="M500.4,1638.5l-120.2-106.3c0,0-102.8,86.6-78.8,163.8c13.6,43.7,56.6,37.7,91.3,24.1
			c25.2-9.9,48.1-24.8,67.7-43.5L500.4,1638.5z"/>
		<path class="st8" d="M545.1,1547.7c0,0-11.2-59.1-108.4-90.8"/>
		<path class="st8" d="M593.5,1520.8c-25.6-58.9-23.3-85.5-113.8-120.4"/>
		<path class="st8" d="M642.2,1472.9c0,0-21.8-83.5-119.1-115.2"/>
		<path class="st8" d="M443.3,1595.3l222.4-284.5l90-12.6c0,0-34.3-6.2-62.3-28.6c-28-22.7-35.9-49.2-35.9-49.2"/>
		<g>
			<g>
				<path class="st9" d="M691.7,1283.3c-2.6-1-5.3-1.9-7.9-2.8c-0.6,2.6-1.5,5.2-2.1,7.8c6.5,1.9,12.8,4,19.3,6c0-2.6,0-5.2,0-7.8
					c-4.2,0.6-8.3,1.3-12.5,1.9c-1.9,0.3-4,0.6-6,1c-1,0.2-1.9,0.3-3.1,0.5c-0.5,0.2-1.1,0.2-1.6,0.3c-0.2,0-0.3,0-0.5,0.2
					c-0.8,0.2-0.8,0.2,0.2,0.2c0.6,0.3,1.1,0.6,1.8,1c0.5,0.5,0.6,1.6,0.5,0.5c0-0.5-0.2-1.1-0.2-1.6c-0.2-1.1-0.3-2.3-0.3-3.2
					c-0.2-2.3-0.5-4.5-0.6-6.8c-0.3-4.5-0.5-9.1-0.6-13.4c0-2.3-1.8-4-4-4c-2.1,0-4,1.8-4,4c0,5,0.3,9.9,0.6,14.9
					c0.2,2.4,0.5,4.7,0.6,7.1c0.3,2.3,0.2,5.3,1.5,7.4c1.9,3.1,5.5,2.1,8.6,1.8c2.4-0.3,4.9-0.8,7.1-1.1c5-0.8,9.9-1.5,14.9-2.3
					c1.8-0.3,2.9-2.3,2.9-3.9c0-1.8-1.3-3.4-2.9-3.9c-6.5-1.9-12.8-4-19.3-6c-2.1-0.6-4.4,0.8-5,2.8c-0.6,2.3,0.8,4.2,2.8,5
					c2.6,1,5.3,1.9,7.9,2.8c2.1,0.8,4.4-0.8,5-2.8C695.1,1286,693.8,1284.1,691.7,1283.3L691.7,1283.3z"/>
			</g>
		</g>
		<circle cx="337.4" cy="1656.5" r="13.1"/>
	</g>
</g>
</svg>
