<?xml version="1.0" encoding="utf-8"?>
<!-- Generator: Adobe Illustrator 24.0.1, SVG Export Plug-In . SVG Version: 6.00 Build 0)  -->
<svg version="1.1" id="Layer_1" xmlns="http://www.w3.org/2000/svg" xmlns:xlink="http://www.w3.org/1999/xlink" x="0px" y="0px"
	 viewBox="0 0 1728 1728" style="enable-background:new 0 0 1728 1728;" xml:space="preserve">
<style type="text/css">
	.st0{fill:#008175;stroke:#02555F;stroke-miterlimit:10;}
	.st1{fill:none;stroke:#02555F;stroke-miterlimit:10;}
	.st2{fill:#C7E2B3;stroke:#02555F;stroke-miterlimit:10;}
	.st3{fill:#C4C42F;stroke:#5E5624;stroke-miterlimit:10;}
	.st4{fill:#7F2921;}
	.st5{fill:#635E28;stroke:#5E5624;stroke-miterlimit:10;}
	.st6{fill:#B7A932;stroke:#0C5C51;stroke-miterlimit:10;}
	.st7{fill:#F6E033;stroke:#0C5C51;stroke-miterlimit:10;}
	.st8{fill:none;stroke:#7F7D70;stroke-width:3;stroke-miterlimit:10;}
	.st9{fill:#7F7D70;}
</style>
<g id="food">
	<g id="plate_2_">
		<circle id="plate" class="st0" cx="877.4" cy="578.3" r="284.1"/>
		<path id="plate_1_" class="st1" d="M935.4,388.6c0,0-212.6-45.8-245.1,174.7"/>
	</g>
	<path id="fork" class="st2" d="M1044.4,508.4l-72,54.9l79.4-32.1l-59.6,62.1l75.9-41.4l-43.4,56.8c0,0,63.2-29.4,89.5-59.3
		s11.4-47.2,11.4-47.2l150.5-93.9l-13.2-21.2l-149.6,93.3c0,0-16.6-26.6-49.4-11.5c-32.8,15.1-91.2,60.3-91.2,60.3L1044.4,508.4"/>
	<g id="pizza">
		<path class="st3" d="M771,734.3c-8.6-9.5-22.6-11.9-34-5.9c-31.2,16.5-91.6,54.6-116.1,112.1c-6.3,14.8-0.9,29.7,12,44.1
			c27,30.1,84.7,47.9,139.5,68.8c3.3,1.3,10.4-5,13.7-3.8c2.9,1.1,17.4-7.2,20.2-6.2c51,18.4,80.1,43.5,80.1,43.5
			S871,855.4,782.2,747.3C778.6,742.9,774.9,738.6,771,734.3z"/>
		<circle class="st4" cx="752.5" cy="910.5" r="22.6"/>
		<path class="st5" d="M646.3,875.3c35.4-51.3,49.2-64.8,49.2-64.8s39.8-41.1,86.8-63.1c0,0-19.4-34-45.2-18.9
			c0,0-89.1,44.1-116.1,112.1C620.9,840.4,625.5,905.4,646.3,875.3z"/>
		<circle class="st4" cx="823.2" cy="897.2" r="14.7"/>
		<circle class="st4" cx="787.2" cy="835.2" r="26.5"/>
		<circle class="st4" cx="685.3" cy="878" r="16.8"/>
		<circle class="st4" cx="849.1" cy="936.9" r="15.1"/>
	</g>
	<g id="banana">
		<path class="st6" d="M983.6,1143.4c0,0-8.1,41.4-51,55c0,0,16.7,1.6,66-22.8c49.3-24.5,52.4-105.9,52.4-105.9l-31.7-15
			L983.6,1143.4z"/>
		<path class="st7" d="M1039.3,965.8c-23.1,52-114.3,230.2-268.8,208.7c0,0,21.6,20.3,97.9,23.7c31.2,1.4,67.5-21.3,99.5-48.6
			c46.2-39.4,83.4-88.5,83.4-88.5s-93.1,111.8-7.6,231.3c0,0-27.1-83.5,21.3-154c48.3-70.3,81.7-212,81.9-213c0,0,0,0,0,0
			c0.1-0.5,10.9-36.5,13.7-71.4c2.8-35.1-42.6-2.8-42.6-2.8s-26,32.8-62,85C1049.5,945.4,1044,955.4,1039.3,965.8z"/>
		<path class="st7" d="M1128.1,890.9c0,0-15.9,68.9-68.8,145.5"/>
		<polygon class="st7" points="1148.3,837.6 1159,808.7 1174.2,815.9 1158.7,841.9 		"/>
	</g>
	<g id="fish">
		<path class="st8" d="M542.7,1277.1l135.8-177l-6.4-55.8c0,0,9,19.6,26.8,32.8s35.9,19.3,35.9,19.3"/>
		<path class="st9" d="M577.1,1306.6l-74.3-65.7c0,0-63.5,53.5-48.7,101.2c8.4,27,35,23.3,56.4,14.9c15.6-6.1,29.7-15.3,41.8-26.9
			L577.1,1306.6z"/>
		<path class="st8" d="M604.7,1250.5c0,0-6.9-36.5-67-56.1"/>
		<path class="st8" d="M634.6,1233.9c-15.8-36.4-14.4-52.8-70.3-74.4"/>
		<path class="st8" d="M664.7,1204.3c0,0-13.5-51.6-73.6-71.2"/>
		<path class="st8" d="M541.8,1279.9l137.4-175.8l55.6-7.8c0,0-21.2-3.8-38.5-17.7c-17.3-14-22.2-30.4-22.2-30.4"/>
		<g>
			<g>
				<path class="st9" d="M695.3,1087.1c-1.6-0.6-3.3-1.2-4.9-1.7c-0.4,1.6-0.9,3.2-1.3,4.8c4,1.2,7.9,2.5,11.9,3.7
					c0-1.6,0-3.2,0-4.8c-2.6,0.4-5.1,0.8-7.7,1.2c-1.2,0.2-2.5,0.4-3.7,0.6c-0.6,0.1-1.2,0.2-1.9,0.3c-0.3,0.1-0.7,0.1-1,0.2
					c-0.1,0-0.2,0-0.3,0.1c-0.5,0.1-0.5,0.1,0.1,0.1c0.4,0.2,0.7,0.4,1.1,0.6c0.3,0.3,0.4,1,0.3,0.3c0-0.3-0.1-0.7-0.1-1
					c-0.1-0.7-0.2-1.4-0.2-2c-0.1-1.4-0.3-2.8-0.4-4.2c-0.2-2.8-0.3-5.6-0.4-8.3c0-1.4-1.1-2.5-2.5-2.5c-1.3,0-2.5,1.1-2.5,2.5
					c0,3.1,0.2,6.1,0.4,9.2c0.1,1.5,0.3,2.9,0.4,4.4c0.2,1.4,0.1,3.3,0.9,4.6c1.2,1.9,3.4,1.3,5.3,1.1c1.5-0.2,3-0.5,4.4-0.7
					c3.1-0.5,6.1-0.9,9.2-1.4c1.1-0.2,1.8-1.4,1.8-2.4c0-1.1-0.8-2.1-1.8-2.4c-4-1.2-7.9-2.5-11.9-3.7c-1.3-0.4-2.7,0.5-3.1,1.7
					c-0.4,1.4,0.5,2.6,1.7,3.1c1.6,0.6,3.3,1.2,4.9,1.7c1.3,0.5,2.7-0.5,3.1-1.7C697.4,1088.8,696.6,1087.6,695.3,1087.1
					L695.3,1087.1z"/>
			</g>
		</g>
		<circle cx="476.4" cy="1317.7" r="8.1"/>
	</g>
</g>
</svg>
