<?xml version="1.0" encoding="utf-8"?>
<!-- Generator: Adobe Illustrator 24.0.1, SVG Export Plug-In . SVG Version: 6.00 Build 0)  -->
<svg version="1.1" id="Layer_1" xmlns="http://www.w3.org/2000/svg" xmlns:xlink="http://www.w3.org/1999/xlink" x="0px" y="0px"
	 viewBox="0 0 1728 1728" style="enable-background:new 0 0 1728 1728;" xml:space="preserve">
<style type="text/css">
	.st0{fill:#002C3A;}
	.st1{fill:#9ACD74;}
</style>
<g id="trees">
	<path class="st0" d="M1244.3,286.1c0,0,17.3-0.4,14.5-10.4c-2.8-10,9.2-17.9,9.2-17.9s4.6,25.5,14,16.7s25.3,0,25.3,0
		s-12.7,7.6-2.5,10.1s23,21.6,23,21.6c4.5,1.8,5.6,13.8,5.6,13.8s-19.1-4.5-15.6-1.6s0.8,8.5,0.8,8.5l-8.2-3.4
		c-16.7-5.3-23.5,6.9-23.5,6.9l7.5,12l-13.3,3.3c13.9,1.1,24.5,18.5,24.5,18.5s-2.5-1.4-16,0c-13.5,1.4-8.5,6-8.5,6
		c23.1,0.7,30.6,23.5,30.6,23.5l-30.6-3.9c4.3,1.1,11,8.9,11,8.9h-20.3c0,0-0.7,12.1,2.1,9.6c2.8-2.5,13.1-6.4,13.1-6.4l-1.8,4.6
		l0.7,5l8.2,2.5l7.8,0.7l1.8-14.2c8.2,0.4,15.3,17.8,15.3,17.8s-1.8,16,2.1,9.9c3.9-6,14.2-9.9,14.2-9.9s-0.4,7.8,0.7,18.8
		s9.2,7.5,9.2,7.5c6.8-12.1,25.2-10.3,25.2-10.3c-3.9,3.2-5.3,15.3-5.3,15.3c12.1,0.7,12.1,7.5,12.1,7.5l-12.4,14.9
		c14.2-0.4,17.4,18.8,17.4,18.8h-9.9c6.4,11.4,3.9,25.2,3.9,25.2l-17.1-6.6v8.4c0,0-2.1,0.4-8.9-5c-6.8-5.3-9.6-2.8-9.6-2.8l4.5,8.9
		c0,0-8-4.3-18.4-2.8c-10.3,1.4-5.7,5.7-5.7,5.7c28.1,5,23.8,27.7,23.8,27.7l-26.7-12.1l4.3,7.5c5.7,5.3,0,6,0,6l-19.5-8.5v22
		l-5-3.9l-8.5,13.5c0,0,9.9,14.9,5.7,14.2s-11-5.7-11-5.7c-11.4,19.2-35.7,22.3-35.7,22.3v7.6c-2.3-2.3-16.4-7.6-16.4-7.6v20.5
		c0,0-17.6-16.4-18.8-10.6c-1.2,5.9-21.1,13.5-21.1,13.5h-13.5v25.2c-14.1-0.6-24.6-17.6-24.6-17.6c-3.5,4.1-12.9,6.5-12.9,6.5
		l-5.9,121.4c0,0-10.6,14.7-12.3,16.4c-1.8,1.8-2.3,10.6-2.3,10.6c-9.4,4.7-12.1,20.5-12.1,20.5s-4.3,15.8-5.5,22.9
		c-1.2,7-14.7,24.6-14.7,24.6c5.3,8.8,9.4,27.1,9.4,27.1l31,500.4h-108.2l9-534l-2.6-50.6c0,0-32.7-20.5-37.8-54.5
		c-5.1-34-9-89.1-9-89.1s-5.8-31.5-8.4-34c0,0-15.6,39.9-52.1,54.1l-3.5,7.2l-13.4-0.4c0,0-2.6,7.7,0,13.8c2.6,6.1-18-4.6-18-4.6
		s-12.5,17.7-32.9,18.6c0,0-1.5,14.5,4.2,21.5l-8.3,0.4l11.2,651.6h-62.2l10.9-597.7c0,0-16.7,41.1-82.4,70.6s-75.7,54.9-75.7,54.9
		s-5.4,32.2-6.7,55.6l4.7,418l-20.9,0l-5.3-421.4c0,0-57.6-42.9-73-138c0,0-32.8,15.4-47.6-60.3l-12.1-44.7l-10.2,11v-34.3l-46,1.5
		c0,0,3.7-16.1,14.6-18.3c0,0-12.4-5.1-14.6-16.1l-29.9-0.7l-11.7,6.6V661l-12.4-1.5c0,0,7.3-8.8,19.7-13.1c0,0-9.5-5.1-19.7,2.2
		s-5.8-10.2-5.8-10.2l2.1-3.2l-12.6-0.7l9-19l-41.3,2.8c0,0,5.5-15.9,17.6-19.5c12.1-3.6-10.4-5.2-10.4-5.2s-9.7,10.2-9.5,15.9
		S314.6,592,314.6,592s-11.5-20.6-6-33.2c5.5-12.6-6.7,0.3-6.7,0.3s-6.8-9.1-2.3-27l3-9.5c0,0,4.6,1.5,1.5-7.2
		c-3-8.7,6.5-7.2,6.5-7.2l-6.8-14.4c0,0,3-4.2,11.4-0.8c8.4,3.4,3.7-6.4,3.7-6.4l-5.4-26.1c0,0,15.9-3.1,25.1,11.8
		c9.2,14.9,11.8-10.3,11.8-10.3s-3.6-17.5-13.9-13.3l1-13.3l12.8-4.6c0,0-13.3-5.6-11.8-11.3l18.5-2.6c0,0,15-27.1,7.5-32.9
		c0,0,13.3,2.3,16.7,8.7s15.6-10.4,15.6-10.4l6.9-9.2c0,0,10.4,0,15.6,12.1c5.2,12.1,11.5,5.8,11.5,5.8s0.6,15,13.3,16.7
		c12.7,1.7,13.3-12.7,13.3-12.7s2.9,7.5,9.8,7.5c6.9,0,6.9-11.5,6.9-11.5l15.6,23.7l9-8.9c0,0,14.4-5.5,24.9,3.5
		c10.5,9,14.4-20.7,14.4-20.7l-17.1-12.5c0,0,13.6-8.2,23.8-7.4s5.1-23.4,5.1-23.4l12.1,1.2l-1.6-12.5l6.2,3.1l30.1,9
		c0,0-13.5-23.3-9.8-27h21.7l-4.1-9c0,0,5.7-3.3,13.9,3.3c8.2,6.5,11,0.4,11,0.4l-2.8-18.3c0,0,15,6.1,14.4,15.5l16.7-4.8
		c0,0,2.6-5.3,1-9.6c0,0,8.8-0.5,9.5,9.6c0.7,10.1,19.3,9.4,19.3,9.4s8.8-11.1,9.5-17c0.7-5.9,1.6-11.1,1.6-11.1
		s11.8,14.7,13.1,29.8c1.3,15.1,9.2-6.6,9.2-6.6l5.2-2.9l2.9,8.5l1.3,20.6c0,0,2.9-0.7,8.5-10.2c5.6-9.5,11.1-14.1,11.1-14.1
		l0.3,33.7c0,0-3.9,4.6-1,4.6s9.8-4.3,9.8-4.3s4.6,6.9-2,12.4c0,0,17,10.2,16.4,21.3c0,0,5.6,4.6,5.6-6.2l-1.3-9.2
		c0,0,22.3,2,24.2,13.8c2,11.8,8.8-14.1,8.8-14.1s12.8,8.2,14.4,18.3c0,0,5.6,4.9,9.8-10.2s16.7-15.4,16.7-15.4s2.6,13.8,8.2,14.7
		c5.6,1,7.8-1.5,7.8-1.5v17.5c0,0,5.9,2.7,5.9-4.4s1.2-10.1,1.2-10.1l10.4,9.8c0,0,3.8-10.4-0.3-11.2c-4.1-0.9-14.5-2.4-14.5-2.4
		l0.6-5.6l-7.1-0.9c0,0,3.8-10.9,9.2-10.9s-3-3-3-3s-17.5-3.3-19.2-9.2c-1.8-5.9,23.7-9.2,23.7-9.2l-0.6-4.1c0,0-19.5,0.3-29.6-7.4
		c0,0,3.3-4.4,21.3-6.5c18-2.1-8-7-8-7l14.8-15.6l-5.1-21.7c0,0,18.8-5.1,24.6,7.2s25.3-26,25.3-26s7.1-23.2,19.2-23.2l2,26.2
		c0,0,4.8-22.8,26.4-19.2c21.6,3.6,31.2,14.4,31.2,14.4l14.4,1.2c0,0-3.6,7.2-9.6,14.4s13.2,7.2,13.2,7.2s13.2,0,14.4,7.2
		c1.2,7.2,20.4-12,20.4-12s4.8-16.8,3.6-25.2s36,18,36,18l6-32.2c0,0,16.8,1,13.2,19s13.2,13.2,13.2,13.2s2.4-15.6,10.8-12
		c8.4,3.6,19.2,10.8,19.2,10.8s28.8-7.2,22.8-21.6c0,0,25.2-2.4,26.4,16.8s18,8.4,18,8.4l25.2-9.6
		C1243.6,252,1230.7,280.6,1244.3,286.1z"/>
	<path class="st1" d="M541.9,732.1c0,0,0.9,78.7,5.4,85.7c4.5,6.9-12.4,1.8-12.4,1.8s-25.3-14.5-32-69.1
		C502.9,750.5,532.2,742.1,541.9,732.1z"/>
	<path class="st1" d="M545.5,749.9v-12.7c0,0,3-8.1,4.8,1.8c0,0,0.3,20.8,7.2,23.8c0,0,3.3-12.4,31.4-18.1c0,0-2,98.4,56.7,103.7
		c0,0-17.1,45.5-23.1,98.3C622.5,946.8,555.5,909.2,545.5,749.9z"/>
	<path class="st1" d="M599,784.2c0,0,21.4,79.4,65.7,44.3c0,0,31.1-12.3,49.4-55.1l-7.4,6.9c0,0-4.6-20-3.1-26
		c1.4-6-13.1,11.4-13.1,11.4s-3.1-9.7-2-12.7c0,0-2.6-1.9-4.9,7.3s-9.4,15.1-9.4,15.1s-11.1-21.1-8.9-33.7h-2.9l-1.1,12.3
		c0,0-8-0.3-10.3-4.6c0,0-9.1,6-12.3,4c0,0-11.1,6.6-16,1.7C622.7,755.1,622.7,771.9,599,784.2z"/>
	<path class="st1" d="M652.9,892.6c0,0,4.2-57.7,30.4-67.7s44.6-67.9,44.6-67.9s18.9-15.7,20.2,7.3c0,0,2.4,11.5,13.1,10.8
		c0,0,7.3-23.3,23.3-27.5c16-4.2,18.1,40.6,18.1,40.6s-24.8,42-78,58.2C671.5,862.6,652.9,892.6,652.9,892.6z"/>
	<path class="st1" d="M926.6,640.6c0,0-10.5-17.2-31.6-20.6l-1.7-20.6c0,0,25.1,10.8,33.2,9.8c0,0-2.4-9.1-9.1-14.6
		c0,0,25.4,13.2,33.5,13.2s-5,9.8-5,9.8s5.5,2.9,11.5,0C957.5,617.7,955.3,636.8,926.6,640.6z"/>
	<path class="st1" d="M953.1,600.3l-11.6-19.8c0,0,15.9,4.9,16,14.2C957.6,604,953.1,600.3,953.1,600.3z"/>
	<path class="st1" d="M981.7,628.6c0,0-6.3-18.7,8.2-15.1v27.1c0,0,0.3,9.2,4.2,10.4c0,0,21.4-18.4,23.3-27.8
		c1.8-9.4,10.9,1.8,10.9,1.8s-0.9,20.2-6,26l3,124.5c0,0-24.8-10-30.5-41.1C994.7,734.4,983,635.1,981.7,628.6z"/>
	<path class="st1" d="M1063.8,650.3c0,0-9.7,8.7-12.4-3.4c-2.6-12.2,12.4-2,12.4-2S1066.4,648.4,1063.8,650.3z"/>
	<path class="st1" d="M1076.4,499.2c0,0-9.8-10.6,3-3.4c12.8,7.2,0,7.5,0,7.5L1076.4,499.2z"/>
	<path class="st1" d="M1095.6,500.3c0,0-17-8.3,1.9-4.9c18.9,3.4,10.9,7.9,10.9,7.9S1100.5,506,1095.6,500.3z"/>
	<path class="st1" d="M1125.4,527.5c0,0,1.1,7.9-6,2.6c-7.2-5.3-4.2-9.1-4.2-9.1S1127.7,515,1125.4,527.5z"/>
	<path class="st1" d="M1080.6,807.7c0,0-5.7-24.3-3.2-49.1s6.1-95.8,6.1-95.8s15.8-6.5,16.6-12.6c0,0,23.9,2.1,28.4-3.2
		c0,0-14.7,85.8-15.8,120.1C1112.6,767.1,1085.5,788.2,1080.6,807.7z"/>
</g>
</svg>
