<?xml version="1.0" encoding="utf-8"?>
<!-- Generator: Adobe Illustrator 24.0.1, SVG Export Plug-In . SVG Version: 6.00 Build 0)  -->
<svg version="1.1" id="Layer_1" xmlns="http://www.w3.org/2000/svg" xmlns:xlink="http://www.w3.org/1999/xlink" x="0px" y="0px"
	 viewBox="0 0 1728 1728" style="enable-background:new 0 0 1728 1728;" xml:space="preserve">
<style type="text/css">
	.st0{fill:#002C3A;}
	.st1{fill:#9ACD74;}
</style>
<g id="trees">
	<path class="st0" d="M1465.6,88.6c0,0,25.7-0.6,21.6-15.5c-4.2-14.9,13.7-26.6,13.7-26.6s6.8,38,20.8,24.9s37.7,0,37.7,0
		s-18.9,11.3-3.7,15c15.2,3.7,34.2,32.1,34.2,32.1c6.7,2.7,8.3,20.5,8.3,20.5s-28.4-6.7-23.2-2.4c5.2,4.3,1.2,12.7,1.2,12.7
		l-12.2-5.1c-24.9-7.9-35,10.3-35,10.3l11.2,17.9l-19.8,4.9c20.7,1.6,36.5,27.5,36.5,27.5s-3.7-2.1-23.8,0s-12.7,8.9-12.7,8.9
		c34.4,1,45.5,35,45.5,35l-45.5-5.8c6.4,1.6,16.4,13.2,16.4,13.2h-30.2c0,0-1,18,3.1,14.3c4.2-3.7,19.5-9.5,19.5-9.5l-2.7,6.8l1,7.4
		l12.2,3.7l11.6,1l2.7-21.1c12.2,0.6,22.8,26.5,22.8,26.5s-2.7,23.8,3.1,14.7c5.8-8.9,21.1-14.7,21.1-14.7s-0.6,11.6,1,28
		s13.7,11.2,13.7,11.2c10.1-18,37.5-15.3,37.5-15.3c-5.8,4.8-7.9,22.8-7.9,22.8c18,1,18,11.2,18,11.2l-18.5,22.2
		c21.1-0.6,25.9,28,25.9,28h-14.7c9.5,17,5.8,37.5,5.8,37.5l-25.5-9.8v12.5c0,0-3.1,0.6-13.2-7.4c-10.1-7.9-14.3-4.2-14.3-4.2
		l6.7,13.2c0,0-11.9-6.4-27.4-4.2c-15.3,2.1-8.5,8.5-8.5,8.5c41.8,7.4,35.4,41.2,35.4,41.2l-39.7-18l6.4,11.2c8.5,7.9,0,8.9,0,8.9
		l-29-12.7v32.7l-7.4-5.8l-12.7,20.1c0,0,14.7,22.2,8.5,21.1c-6.3-1-16.4-8.5-16.4-8.5c-17,28.6-53.1,33.2-53.1,33.2v11.3
		c-3.4-3.4-24.4-11.3-24.4-11.3v30.5c0,0-26.2-24.4-28-15.8c-1.8,8.8-31.4,20.1-31.4,20.1h-20.1v37.5c-21-0.9-36.6-26.2-36.6-26.2
		c-5.2,6.1-19.2,9.7-19.2,9.7l-8.8,180.7c0,0-15.8,21.9-18.3,24.4c-2.7,2.7-3.4,15.8-3.4,15.8c-14,7-18,30.5-18,30.5
		s-6.4,23.5-8.2,34.1c-1.8,10.4-21.9,36.6-21.9,36.6c7.9,13.1,14,40.3,14,40.3l46.1,744.8h-161l13.4-794.8l-3.9-75.3
		c0,0-48.7-30.5-56.3-81.1c-7.6-50.6-13.4-132.6-13.4-132.6s-8.6-46.9-12.5-50.6c0,0-23.2,59.4-77.5,80.5l-5.2,10.7l-19.9-0.6
		c0,0-3.9,11.5,0,20.5c3.9,9.1-26.8-6.8-26.8-6.8s-18.6,26.3-49,27.7c0,0-2.2,21.6,6.3,32l-12.4,0.6l16.7,969.8h-92.6l16.2-889.6
		c0,0-24.9,61.2-122.6,105.1s-112.7,81.7-112.7,81.7s-8,47.9-10,82.8l7,622.1h-31.1l-7.9-627.2c0,0-85.7-63.9-108.7-205.4
		c0,0-48.8,22.9-70.8-89.7l-18-66.5l-15.2,16.4v-51.1l-68.5,2.2c0,0,5.5-24,21.7-27.2c0,0-18.5-7.6-21.7-24l-44.5-1l-17.4,9.8v-17.7
		l-18.5-2.2c0,0,10.9-13.1,29.3-19.5c0,0-14.1-7.6-29.3,3.3s-8.6-15.2-8.6-15.2l3.1-4.8l-18.8-1l13.4-28.3l-61.5,4.2
		c0,0,8.2-23.7,26.2-29s-15.5-7.7-15.5-7.7s-14.4,15.2-14.1,23.7c0.3,8.5-19.2-26-19.2-26s-17.1-30.7-8.9-49.4
		c8.2-18.8-10,0.4-10,0.4s-10.1-13.5-3.4-40.2l4.5-14.1c0,0,6.8,2.2,2.2-10.7c-4.5-12.9,9.7-10.7,9.7-10.7l-10.1-21.4
		c0,0,4.5-6.3,17-1.2c12.5,5.1,5.5-9.5,5.5-9.5l-8-38.8c0,0,23.7-4.6,37.4,17.6c13.7,22.2,17.6-15.3,17.6-15.3s-5.4-26-20.7-19.8
		l1.5-19.8l19.1-6.8c0,0-19.8-8.3-17.6-16.8l27.5-3.9c0,0,22.3-40.3,11.2-49c0,0,19.8,3.4,24.9,12.9c5.1,9.5,23.2-15.5,23.2-15.5
		l10.3-13.7c0,0,15.5,0,23.2,18c7.7,18,17.1,8.6,17.1,8.6s0.9,22.3,19.8,24.9c18.9,2.5,19.8-18.9,19.8-18.9s4.3,11.2,14.6,11.2
		s10.3-17.1,10.3-17.1l23.2,35.3l13.4-13.2c0,0,21.4-8.2,37.1,5.2c15.6,13.4,21.4-30.8,21.4-30.8l-25.5-18.6c0,0,20.2-12.2,35.4-11
		c15.2,1.2,7.6-34.8,7.6-34.8l18,1.8l-2.4-18.6l9.2,4.6l44.8,13.4c0,0-20.1-34.7-14.6-40.2h32.3l-6.1-13.4c0,0,8.5-4.9,20.7,4.9
		c12.2,9.7,16.4,0.6,16.4,0.6l-4.2-27.2c0,0,22.3,9.1,21.4,23.1l24.9-7.1c0,0,3.9-7.9,1.5-14.3c0,0,13.1-0.7,14.1,14.3
		c1,15,28.7,14,28.7,14s13.1-16.5,14.1-25.3s2.4-16.5,2.4-16.5s17.6,21.9,19.5,44.4c1.9,22.5,13.7-9.8,13.7-9.8l7.7-4.3l4.3,12.7
		l1.9,30.7c0,0,4.3-1,12.7-15.2c8.3-14.1,16.5-21,16.5-21l0.4,50.2c0,0-5.8,6.8-1.5,6.8c4.3,0,14.6-6.4,14.6-6.4s6.8,10.3-3,18.5
		c0,0,25.3,15.2,24.4,31.7c0,0,8.3,6.8,8.3-9.2l-1.9-13.7c0,0,33.2,3,36,20.5c3,17.6,13.1-21,13.1-21s19.1,12.2,21.4,27.2
		c0,0,8.3,7.3,14.6-15.2c6.3-22.5,24.9-22.9,24.9-22.9s3.9,20.5,12.2,21.9c8.3,1.5,11.6-2.2,11.6-2.2v26c0,0,8.8,4,8.8-6.5
		s1.8-15,1.8-15l15.5,14.6c0,0,5.7-15.5-0.4-16.7c-6.1-1.3-21.6-3.6-21.6-3.6l0.9-8.3l-10.6-1.3c0,0,5.7-16.2,13.7-16.2
		s-4.5-4.5-4.5-4.5s-26-4.9-28.6-13.7c-2.7-8.8,35.3-13.7,35.3-13.7l-0.9-6.1c0,0-29,0.4-44.1-11c0,0,4.9-6.5,31.7-9.7
		c26.8-3.1-11.9-10.4-11.9-10.4l22-23.2l-7.6-32.3c0,0,28-7.6,36.6,10.7c8.6,18.3,37.7-38.7,37.7-38.7S989.1,0,1007.1,0l3,39
		c0,0,7.1-33.9,39.3-28.6c32.1,5.4,46.4,21.4,46.4,21.4l21.4,1.8c0,0-5.4,10.7-14.3,21.4c-8.9,10.7,19.6,10.7,19.6,10.7
		s19.6,0,21.4,10.7c1.8,10.7,30.4-17.9,30.4-17.9s7.1-25,5.4-37.5s53.6,26.8,53.6,26.8l8.9-47.9c0,0,25,1.5,19.6,28.3
		s19.6,19.6,19.6,19.6s3.6-23.2,16.1-17.9c12.5,5.4,28.6,16.1,28.6,16.1s42.9-10.7,33.9-32.1c0,0,37.5-3.6,39.3,25
		c1.8,28.6,26.8,12.5,26.8,12.5l37.5-14.3C1464.5,37.8,1445.3,80.4,1465.6,88.6z"/>
	<path class="st1" d="M420.1,752.4c0,0,1.3,117.1,8,127.6c6.7,10.3-18.5,2.7-18.5,2.7S372,861,362.1,779.8
		C362.1,779.8,405.7,767.3,420.1,752.4z"/>
	<path class="st1" d="M425.5,778.9V760c0,0,4.5-12.1,7.1,2.7c0,0,0.4,31,10.7,35.4c0,0,4.9-18.5,46.7-26.9c0,0-3,146.5,84.4,154.3
		c0,0-25.5,67.7-34.4,146.3C540.1,1071.9,440.4,1016,425.5,778.9z"/>
	<path class="st1" d="M505.1,829.9c0,0,31.9,118.2,97.8,65.9c0,0,46.3-18.3,73.5-82l-11,10.3c0,0-6.8-29.8-4.6-38.7
		c2.1-8.9-19.5,17-19.5,17s-4.6-14.4-3-18.9c0,0-3.9-2.8-7.3,10.9c-3.4,13.7-14,22.5-14,22.5s-16.5-31.4-13.2-50.2h-4.3l-1.6,18.3
		c0,0-11.9-0.4-15.3-6.8c0,0-13.5,8.9-18.3,6c0,0-16.5,9.8-23.8,2.5C540.4,786.6,540.4,811.6,505.1,829.9z"/>
	<path class="st1" d="M585.3,991.3c0,0,6.3-85.9,45.2-100.8c39-14.9,66.4-101.1,66.4-101.1s28.1-23.4,30.1,10.9
		c0,0,3.6,17.1,19.5,16.1c0,0,10.9-34.7,34.7-40.9c23.8-6.3,26.9,60.4,26.9,60.4s-36.9,62.5-116.1,86.6
		C613,946.6,585.3,991.3,585.3,991.3z"/>
	<path class="st1" d="M992.7,616.2c0,0-15.6-25.6-47-30.7l-2.5-30.7c0,0,37.4,16.1,49.4,14.6c0,0-3.6-13.5-13.5-21.7
		c0,0,37.8,19.6,49.9,19.6c12.1,0-7.4,14.6-7.4,14.6s8.2,4.3,17.1,0C1038.7,582.1,1035.4,610.5,992.7,616.2z"/>
	<path class="st1" d="M1032.1,556.2l-17.3-29.5c0,0,23.7,7.3,23.8,21.1S1032.1,556.2,1032.1,556.2z"/>
	<path class="st1" d="M1074.7,598.3c0,0-9.4-27.8,12.2-22.5v40.3c0,0,0.4,13.7,6.3,15.5c0,0,31.9-27.4,34.7-41.4
		c2.7-14,16.2,2.7,16.2,2.7s-1.3,30.1-8.9,38.7l4.5,185.3c0,0-36.9-14.9-45.4-61.2C1094.1,755.8,1076.6,608,1074.7,598.3z"/>
	<path class="st1" d="M1196.9,630.6c0,0-14.4,12.9-18.5-5.1c-3.9-18.2,18.5-3,18.5-3S1200.8,627.8,1196.9,630.6z"/>
	<path class="st1" d="M1215.7,405.7c0,0-14.6-15.8,4.5-5.1c19.1,10.7,0,11.2,0,11.2L1215.7,405.7z"/>
	<path class="st1" d="M1244.2,407.4c0,0-25.3-12.4,2.8-7.3c28.1,5.1,16.2,11.8,16.2,11.8S1251.5,415.9,1244.2,407.4z"/>
	<path class="st1" d="M1288.6,447.9c0,0,1.6,11.8-8.9,3.9c-10.7-7.9-6.3-13.5-6.3-13.5S1292,429.2,1288.6,447.9z"/>
	<path class="st1" d="M1221.9,864.9c0,0-8.5-36.2-4.8-73.1c3.7-36.9,9.1-142.6,9.1-142.6s23.5-9.7,24.7-18.8c0,0,35.6,3.1,42.3-4.8
		c0,0-21.9,127.7-23.5,178.8C1269.5,804.5,1229.2,835.9,1221.9,864.9z"/>
</g>
</svg>
