<?xml version="1.0" encoding="utf-8"?>
<!-- Generator: Adobe Illustrator 24.0.1, SVG Export Plug-In . SVG Version: 6.00 Build 0)  -->
<svg version="1.1" id="Layer_1" xmlns="http://www.w3.org/2000/svg" xmlns:xlink="http://www.w3.org/1999/xlink" x="0px" y="0px"
	 viewBox="0 0 1728 1728" style="enable-background:new 0 0 1728 1728;" xml:space="preserve">
<style type="text/css">
	.st0{fill:#008175;}
	.st1{fill:#B72025;}
	.st2{fill:#0F101E;}
	.st3{fill:#E8A697;}
	.st4{fill:#F1AA99;}
	.st5{fill:#11111E;}
	.st6{fill:#EC8683;}
	.st7{fill:#2D2133;}
	.st8{fill:#A7797B;}
</style>
<g id="girl">
	<path class="st0" d="M1038.5,1377.6c0,0-29.5,26.7-102.8,20.9s-79.4-13.8-79.4-13.8s-73.9-3.3-101.5,0c-27.6,3.3-54.3,1.4-54.3,1.4
		s-20.5,8.1-18.1-55.2c2.4-63.3,19-498.3,19-498.3s-46.2,2.9-38.5-57.1c0,0,22.4-70.9,23.3-168s-4.8-118-4.8-118s3.3-22.4,36.6-29.5
		c0,0-8.6-96.1-13.3-109.5s-10.5-48.1-10.5-48.1s-7.7-106.3,88.4-136.3S933.7,188,933.7,188s75.8,57.8,69.8,188.4
		c0,0,0,35.1-12.1,53.6c0,0,107.9-3.4,111.6,73.8V582c0,0,59.5,58.9,31.4,94.6l-24,32.8c0,0,18.8,123.7,11.7,142.4
		c0,0-8.2,69.7-93.8,86.2l-0.6,97.9c0,0,8.2,155.1,29.1,298.3C1056.8,1334.3,1061.6,1365.3,1038.5,1377.6z"/>
	<path class="st1" d="M702.8,740.3c0,0-15.7-245.2-21.3-250.8c0,0,5.2-25.2,36.6-29.5c0,0,47.7,210.8,12.6,280.3
		C730.8,740.3,727.4,748.9,702.8,740.3z"/>
	<path class="st1" d="M953,744.1c0,0,31.3-227.5,94-265c0,0,11.3,4.4,10,30.7l46,72.3v-78.2c0,0,5.1-72.2-111.6-73.8
		c0,0-4,12.8,3.6,16.5c0,0-117.2,69.1-81.7,315.4h26.3L953,744.1z"/>
	<path class="st1" d="M964.3,809.3c0,0,19.8,25.8,64.7,36.5l-0.7,92.2c0,0,79.3-10.2,93.8-86.2c0,0,7.8-20.8-11.7-142.4
		c0,0-34,44.4-93.5,73.9l6.5,40.4c0,0-15,0.7-40.5-20.9L971,801l-5.4,0.6L964.3,809.3z"/>
	<path class="st2" d="M831.9,1383.9c0,0,9.8,82.6,7.2,102.1h-26.4c0,0-7.6-25.7-17.4,0H659.6c0,0-6.9-40.9,37.3-42.4
		c44.2-1.4,48.9-19.9,48.9-19.9s35.2-17.4,22.5-40C768.2,1383.7,824.7,1382,831.9,1383.9z"/>
	<path class="st2" d="M1020.4,1387.9c0,0,9.2,77.3,6.6,96.9h-26.4c0,0-7.6-25.7-17.4,0H847.5c0,0-6.9-40.9,37.3-42.4
		c44.2-1.4,48.9-19.9,48.9-19.9s24.5-5,25.7-23.2C959.3,1399.4,987.1,1399.4,1020.4,1387.9z"/>
	<path class="st3" d="M712.6,810.3c0,0-22.1,29.5-36.3-4.7c-14.2-34.2,10.6-52.4,10.6-52.4l15.9-12.8c0,0,27.4,4.5,28.5,7.7
		c1.1,3.3-3.3,8-3.3,8s24.8,2.5,5.1,14.9c0,0,12.6,13.6-2.6,14.4c0,0,18.6,18.3-13.7,18.6C716.8,804,708,807.1,712.6,810.3z"/>
	<path class="st3" d="M971,801c0,0-11.7-33.5-31.4-39.1h-26.3c0,0-36.6,19.8-34.8,35.4c0,0-0.4,6.8,7.6,3.7c0,0-5.8,19.2,5.1,21.1
		c0,0,0,13.5,15.4,6.7c0,0,1.3,19.2,20.1,5.4c0,0,36.3-17.3,37.6-24.9c1.3-7.7,1.3-7.7,1.3-7.7L971,801z"/>
	<path class="st1" d="M1004.8,611.3v69.1c0,0,15.1-22.7,35.7-34.6c0,0-31.3-33.5-31.3-42.8C1009.1,603,1003.3,605.2,1004.8,611.3z"
		/>
	<path class="st2" d="M743.7,689.1c0,0,46.7,86,167.2,55l-2.8-29.2c0,0-80.5,40.3-164.4-44.7V689.1z"/>
	<path class="st4" d="M914.8,410.9c0,0-25.4,74.2-97.7,70.3c-72.3-3.9-100.3-95.1-100.3-95.1s-12-54.7,26.9-95.1
		c0,0,33.7-89.2,102.1-24.7s79.5,71,79.5,71S941.9,368.3,914.8,410.9z"/>
	<path class="st2" d="M864,487.4c0,0-49.2,36.4-97.4-6.1c0,0-23.4-24.3-26-48.1c0,0,31,48.2,76.5,47.9c0,0,55.3,7.8,89.5-53
		C906.5,428.2,902,462.8,864,487.4z"/>
	<ellipse class="st5" cx="755.7" cy="347.4" rx="9.3" ry="14.7"/>
	<ellipse class="st5" cx="851.5" cy="340.4" rx="9.3" ry="14.7"/>
	<ellipse class="st6" cx="862.5" cy="387.3" rx="23.9" ry="13.8"/>
	<ellipse class="st6" cx="750.8" cy="395.1" rx="23.9" ry="13.8"/>
	<path class="st7" d="M770.3,315.5c1,1,0.3,2.8-1.1,3c-6.7,0.8-22.6,3.1-32.7,7.2c-13.1,5.3,5.4-11.2,5.4-11.2
		S760,304.5,770.3,315.5z"/>
	<path class="st7" d="M837.1,308.5c-0.7,1.2,0.3,2.8,1.7,2.6c6.7-0.7,22.7-2.2,33.5-0.5c14,2.2-7.8-9.7-7.8-9.7
		S844.6,295.4,837.1,308.5z"/>
	<path class="st8" d="M793.3,350.8c0,0,9.7-31.3-8.9-2.3c-12.1,18.9-8.4,35.5-4.4,44.8c2.9,6.7,9.3,11.4,16.5,11.5
		c4.4,0,9.2-1.6,13.2-6.9c6.9-9.2-2.1-6.9-8.3-4.7c-7.5,2.7-15.9-2-16.7-9.9C784.1,376.6,786,366.5,793.3,350.8z"/>
	<path class="st8" d="M806.9,438.2c0,0-30.9-6-8-9.2c4.2-0.6,8.4-0.3,12.5,0.6c6.6,1.4,19.7,1.6,33.3-12.2
		c10.7-10.9,11.7-7.6,10.4-2.4c-1.9,7.8-7,14.6-14,18.6C833.9,437.8,822.7,441.2,806.9,438.2z"/>
</g>
</svg>
